<?xml version="1.0" encoding="utf-8"?>
<!-- Generator: Adobe Illustrator 27.5.0, SVG Export Plug-In . SVG Version: 6.00 Build 0)  -->
<svg version="1.1" xmlns="http://www.w3.org/2000/svg" xmlns:xlink="http://www.w3.org/1999/xlink" x="0px" y="0px"
	 viewBox="0 0 500 500" style="enable-background:new 0 0 500 500;" xml:space="preserve">
<g id="BACKGROUND">
	<rect id="XMLID_261_" style="fill:#33C5FF;" width="500" height="500"/>
	<g id="XMLID_11_">
		<defs>
			<rect id="XMLID_14_" width="500" height="500"/>
		</defs>
		<clipPath id="XMLID_00000026161310670734933960000003157177953510983337_">
			<use xlink:href="#XMLID_14_"  style="overflow:visible;"/>
		</clipPath>
		
			<path id="XMLID_93_" style="opacity:0.65;clip-path:url(#XMLID_00000026161310670734933960000003157177953510983337_);fill:#00A19A;" d="
			M501.135,432.605h-9.18l0,0v21.17h-17.65v-9.615h-34.684V386.47v0l-17.762-24.108h0l-21.614,22.227v0v69.187h-20.687v-31.783
			h-8.454V390.14c0-1.332-1.079-2.411-2.411-2.411l0,0c-1.332,0-2.411-1.08-2.411-2.411v-8.414h-12.006v8.414
			c0,1.332-1.08,2.411-2.411,2.411l0,0c-1.332,0-2.411,1.079-2.411,2.411v31.853h-6.581v10.612h-12.735v-59.884H295.73v40.164
			l-26.837,25.307v30.365H247.4v-86.734h-33.3v50.782h-17.875v21.17h-17.65v-9.615h-34.684V386.47l-17.762-24.108l-21.614,22.227
			v69.187H83.828l0,0v-31.783h-8.454V390.14c0-1.332-1.079-2.411-2.411-2.411l0,0c-1.332,0-2.411-1.08-2.411-2.411v-8.414H58.545
			v8.414c0,1.332-1.079,2.411-2.411,2.411l0,0c-1.332,0-2.411,1.079-2.411,2.411v31.853h-6.581v10.612H34.407v-59.884H0V500h295.73
			h205.405L501.135,432.605z"/>
		<g id="XMLID_6_" style="opacity:0.51;clip-path:url(#XMLID_00000026161310670734933960000003157177953510983337_);">
			<path id="XMLID_10_" style="opacity:0.44;fill:#FFFFFF;" d="M174.548,46h150.55c0,0-7.528-18.021-16.937-18.774
				c-9.409-0.753-12.044,5.103-15.055,4.539c-3.011-0.565-7.904-15.514-19.948-16.267c-12.044-0.753-16.749,10.497-23.335,12.567
				c-6.587,2.07-19.571,0.92-29.734-15.452c-10.162-16.372-29.432,1.071-29.922,13.683C189.415,45.679,159.87,34,159.87,46H174.548z
				"/>
			<path id="XMLID_13_" style="opacity:0.44;fill:#FFFFFF;" d="M-8.452,118h150.55c0,0-7.528-18.021-16.937-18.774
				c-9.409-0.753-12.044,5.103-15.055,4.539c-3.011-0.565-7.904-15.515-19.948-16.267c-12.044-0.753-16.748,10.497-23.335,12.567
				c-6.587,2.07-19.571,0.92-29.734-15.452C26.928,68.24,7.658,85.684,7.168,98.295C6.415,117.678-23.13,106-23.13,118H-8.452z"/>
			<path id="XMLID_12_" style="opacity:0.44;fill:#FFFFFF;" d="M110.548,191h150.55c0,0-7.528-18.021-16.937-18.774
				c-9.409-0.753-12.044,5.103-15.055,4.539c-3.011-0.565-7.904-15.514-19.948-16.267c-12.044-0.753-16.748,10.497-23.335,12.567
				c-6.587,2.07-19.571,0.92-29.734-15.452c-10.162-16.372-29.432,1.071-29.922,13.683C125.415,190.678,95.87,179,95.87,191H110.548
				z"/>
			<path id="XMLID_9_" style="opacity:0.44;fill:#FFFFFF;" d="M1.138,281h150.55c0,0-7.528-17.977-16.937-18.73
				c-9.409-0.753-12.044,5.125-15.055,4.561c-3.011-0.565-7.904-15.503-19.948-16.256C87.704,249.822,83,261.078,76.413,263.148
				c-6.587,2.07-19.571,0.923-29.734-15.449c-10.162-16.372-29.432,1.028-29.922,13.64C16.005,280.721-13.541,270-13.541,281H1.138z
				"/>
			<path id="XMLID_164_" style="opacity:0.44;fill:#FFFFFF;" d="M360.703,167h150.55c0,0-7.528-17.845-16.937-18.598
				c-9.409-0.753-12.044,5.191-15.055,4.627c-3.011-0.564-7.904-15.47-19.948-16.223c-12.044-0.753-16.749,10.519-23.335,12.589
				c-6.587,2.07-19.571,0.931-29.734-15.441c-10.162-16.372-29.432,0.901-29.922,13.512C375.57,166.849,346.024,156,346.024,167
				H360.703z"/>
			<path id="XMLID_8_" style="opacity:0.44;fill:#FFFFFF;" d="M344.332,289h150.55c0,0-7.528-17.924-16.937-18.677
				c-9.409-0.753-12.044,5.152-15.055,4.587c-3.011-0.565-7.904-15.49-19.948-16.243c-12.044-0.753-16.749,10.509-23.335,12.579
				c-6.587,2.07-19.571,0.926-29.734-15.446c-10.162-16.372-29.432,0.977-29.922,13.589C359.198,288.773,329.653,278,329.653,289
				H344.332z"/>
		</g>
	</g>
</g>
<g id="OBJECTS">
	<g id="XMLID_5_">
		<g id="XMLID_623_">
			<g id="XMLID_594_">
				<g id="XMLID_575_">
					<g id="XMLID_528_">
						<path id="XMLID_572_" style="fill:#FFCC33;" d="M241.616,111.151l-0.003,0c2.788-5.338,4.587-11.306,5.126-17.683
							c2.173-25.714-16.911-48.32-42.624-50.493c-25.713-2.173-48.32,16.911-50.492,42.624c-0.67,7.929,0.687,15.561,3.631,22.391
							l-0.005,0l0.047,0.104c0.097,0.224,0.2,0.443,0.301,0.665l35.223,67.894l6.847,0.579l40.608-63.698
							c0.46-0.767,0.902-1.546,1.318-2.341L241.616,111.151z"/>
						<path id="XMLID_570_" style="fill:#FFFFFF;" d="M191.226,69.611c-0.629,7.445-7.174,12.97-14.619,12.341
							c-7.445-0.629-12.97-7.174-12.341-14.619c0.629-7.445,7.174-12.97,14.619-12.341C186.33,55.621,191.855,62.166,191.226,69.611
							z"/>
						<path id="XMLID_569_" style="fill:#FFFFFF;" d="M192.456,83.291c-0.301,3.568-3.439,6.217-7.007,5.915
							c-3.569-0.302-6.217-3.439-5.915-7.007c0.302-3.568,3.439-6.217,7.007-5.915C190.11,76.586,192.758,79.723,192.456,83.291z"/>
						<path id="XMLID_567_" style="fill:#FCEA10;" d="M204.114,42.975c-0.256-0.022-0.509-0.029-0.764-0.045l0.002-0.019
							c-25.714-2.173-48.32,16.911-50.493,42.624c-0.67,7.929,0.687,15.561,3.631,22.391l-0.005,0l0.047,0.104
							c0.097,0.223,0.201,0.443,0.301,0.665l35.985,67.958c0,0,1.571-25.211,3.317-43.291c0.913-9.45,7.407-17.415,16.48-20.212
							c10.442-3.22,22.932-11.211,24.601-30.961C238.905,62.219,224.084,44.662,204.114,42.975z"/>
						<path id="XMLID_566_" style="fill:#FCEA10;" d="M203.796,191.938l-18.815-1.59c-1.12-0.095-1.959-1.089-1.865-2.209l0,0
							c0.095-1.12,1.089-1.959,2.209-1.865l18.815,1.59c1.12,0.095,1.959,1.089,1.865,2.209l0,0
							C205.91,191.194,204.916,192.033,203.796,191.938z"/>
						<polygon id="XMLID_564_" style="fill:#FFCC33;" points="192.819,176.652 185.325,186.275 204.14,187.865 199.666,177.231 
													"/>
						<polyline id="XMLID_563_" style="fill:none;stroke:#FFFFFF;stroke-miterlimit:10;" points="188.703,223.182 192.819,176.652 
							199.666,177.231 						"/>
					</g>
					
						<text id="XMLID_573_" transform="matrix(0.9965 0.0842 -0.0842 0.9965 186.9599 119.9758)" style="font-family:'Baloo'; font-size:68.3807px;">!</text>
				</g>
				<g id="XMLID_576_">
					<g id="XMLID_593_">
						<g id="XMLID_596_">
							<path id="XMLID_606_" style="fill:#FFCC33;" d="M48.692,147.914l0.003-0.001c-4.496-4.008-8.288-8.954-11.047-14.729
								C26.524,109.9,36.382,82.006,59.667,70.882c23.284-11.124,51.178-1.266,62.302,22.019c3.43,7.18,4.859,14.799,4.52,22.229
								l0.004-0.002l-0.007,0.114c-0.011,0.243-0.031,0.485-0.046,0.728l-8.942,75.962l-6.201,2.962l-60.507-45.226
								c-0.701-0.555-1.39-1.127-2.061-1.724L48.692,147.914z"/>
							<path id="XMLID_605_" style="fill:#FFFFFF;" d="M81.14,91.241c3.221,6.741,11.297,9.596,18.038,6.375
								c6.742-3.221,9.596-11.297,6.375-18.038c-3.221-6.742-11.297-9.596-18.038-6.375C80.773,76.424,77.919,84.5,81.14,91.241z"/>
							<path id="XMLID_603_" style="fill:#FFFFFF;" d="M84.826,104.473c1.544,3.231,5.414,4.6,8.646,3.056
								c3.231-1.544,4.599-5.415,3.056-8.646s-5.415-4.599-8.646-3.056C84.65,97.371,83.283,101.242,84.826,104.473z"/>
							<path id="XMLID_602_" style="fill:#FCEA10;" d="M59.667,70.882c0.232-0.111,0.466-0.207,0.699-0.313l-0.008-0.018
								c23.284-11.124,51.178-1.266,62.302,22.019c3.43,7.18,4.859,14.799,4.52,22.229l0.004-0.002l-0.007,0.113
								c-0.011,0.243-0.031,0.486-0.047,0.728l-9.633,76.292c0,0-10.384-23.027-18.41-39.322
								c-4.195-8.517-13.086-13.671-22.562-13.08c-10.906,0.68-25.415-2.379-33.959-20.263
								C33.927,101.184,41.583,79.521,59.667,70.882z"/>
							<path id="XMLID_600_" style="fill:#FCEA10;" d="M112.633,210.111l17.037-8.139c1.014-0.485,1.448-1.711,0.963-2.725l0,0
								c-0.485-1.014-1.711-1.448-2.726-0.963l-17.037,8.14c-1.014,0.485-1.448,1.711-0.963,2.725l0,0
								C110.393,210.163,111.619,210.596,112.633,210.111z"/>
							<polygon id="XMLID_599_" style="fill:#FFCC33;" points="117.497,191.932 127.909,198.283 110.871,206.423 111.296,194.894 
															"/>
							<polyline id="XMLID_597_" style="fill:none;stroke:#FFFFFF;stroke-miterlimit:10;" points="137.798,234 117.497,191.932 
								111.296,194.894 							"/>
						</g>
					</g>
					<g id="XMLID_558_">
						<path id="XMLID_561_" style="fill:#E94E1B;" d="M69.029,90.315l3.652,60.215l18.35-6.947l18.35-6.947L72.24,89.099
							C71.154,87.708,68.922,88.552,69.029,90.315z"/>
						<path id="XMLID_560_" style="fill:#F39200;" d="M113.215,137.23l-43.011,16.284c-0.492,0.186-1.047-0.064-1.233-0.556l0,0
							c-0.186-0.492,0.064-1.047,0.556-1.233l43.011-16.284c0.492-0.186,1.047,0.064,1.233,0.556l0,0
							C113.957,136.489,113.706,137.044,113.215,137.23z"/>
					</g>
				</g>
				<g id="XMLID_578_">
					<g id="XMLID_581_">
						<path id="XMLID_591_" style="fill:#F39200;" d="M175.065,80.917l-0.003,0.001c1.388-5.861,1.661-12.087,0.613-18.401
							c-4.227-25.457-28.29-42.667-53.747-38.44c-25.456,4.227-42.666,28.29-38.439,53.747c1.304,7.85,4.498,14.912,9.034,20.807
							l-0.004,0.001l0.071,0.089c0.149,0.193,0.303,0.38,0.455,0.57l50.859,57.128l6.779-1.126l23.67-71.737
							c0.257-0.857,0.493-1.72,0.701-2.594L175.065,80.917z"/>
						<path id="XMLID_590_" style="fill:#FFFFFF;" d="M115.997,53.068c1.224,7.37-3.759,14.337-11.129,15.561
							c-7.37,1.224-14.337-3.759-15.561-11.129c-1.224-7.371,3.759-14.338,11.129-15.561
							C107.806,40.714,114.773,45.697,115.997,53.068z"/>
						<path id="XMLID_588_" style="fill:#FFFFFF;" d="M120.559,66.023c0.587,3.533-1.802,6.872-5.334,7.459
							c-3.533,0.587-6.872-1.802-7.459-5.335c-0.587-3.533,1.802-6.872,5.335-7.459C116.633,60.102,119.972,62.491,120.559,66.023z"
							/>
						<path id="XMLID_587_" style="fill:#FFCC33;" d="M121.928,24.077c-0.253,0.042-0.501,0.097-0.752,0.145l-0.003-0.019
							c-25.457,4.227-42.667,28.29-38.44,53.747c1.304,7.85,4.498,14.912,9.034,20.807l-0.004,0.001l0.071,0.089
							c0.149,0.193,0.304,0.38,0.455,0.57l51.614,57.003c0,0-4.686-24.821-7.447-42.775c-1.443-9.384,2.89-18.703,10.995-23.649
							c9.328-5.693,19.465-16.514,16.218-36.066C160.387,34.16,141.699,20.795,121.928,24.077z"/>
						<path id="XMLID_585_" style="fill:#FFCC33;" d="M158.307,168.531l-18.627,3.093c-1.109,0.184-2.167-0.572-2.351-1.681l0,0
							c-0.184-1.109,0.573-2.167,1.682-2.351l18.627-3.093c1.109-0.184,2.167,0.573,2.351,1.682l0,0
							C160.173,167.289,159.416,168.347,158.307,168.531z"/>
						<polygon id="XMLID_584_" style="fill:#F39200;" points="143.903,156.419 139.01,167.591 157.637,164.498 150.682,155.294 
													"/>
						<polyline id="XMLID_582_" style="fill:none;stroke:#FFFFFF;stroke-miterlimit:10;" points="161.83,228.904 143.903,156.419 
							150.682,155.294 						"/>
					</g>
					
						<text id="XMLID_579_" transform="matrix(0.9865 -0.1638 0.1638 0.9865 96.8988 84.0054)" style="font-family:'Baloo'; font-size:27.7836px;">oops!</text>
				</g>
			</g>
			<g id="XMLID_527_">
				<g id="XMLID_6227_">
					<g id="XMLID_6231_">
						<path id="XMLID_747_" d="M290.102,334.197c0.581,3.293-1.045,6.334-3.632,6.79L91.664,375.329
							c-2.587,0.456-5.155-1.845-5.735-5.138L65.042,251.709c-0.581-3.293,1.046-6.333,3.633-6.789l194.806-34.342
							c2.587-0.456,5.154,1.844,5.734,5.138L290.102,334.197z"/>
					</g>
					<g id="XMLID_6230_">
						
							<rect id="XMLID_746_" x="81.647" y="234.009" transform="matrix(0.9848 -0.1736 0.1736 0.9848 -47.6417 35.1885)" style="fill:#FFFFFF;" width="191.357" height="111.835"/>
					</g>
					<g id="XMLID_6229_">
						<path id="XMLID_745_" style="fill:#575756;" d="M52.524,384.083c0,0-1.17,3.299,11.341,3.671l252.667-44.542
							c0,0,8.362-2.004,9.922-6.174l-0.35-2.071L52.524,384.083z"/>
					</g>
					<g id="XMLID_6228_">
						<path id="XMLID_744_" style="fill:#94998F;" d="M51.517,378.018l273.761-48.261l1.175,6.665c0,0,0.566,0.817-2.695,1.163
							L55.387,384.896c0,0-2.403,1.111-2.911-0.403L51.517,378.018z"/>
					</g>
				</g>
				<g id="XMLID_262_">
					<g id="XMLID_401_">
						<g id="XMLID_403_">
							<path id="XMLID_743_" d="M82.847,443.828c-1.6,0.282-3.309-0.1-4.676-1.196c-2.521-2.02-2.926-5.701-0.906-8.222
								l54.028-67.406c2.02-2.52,5.702-2.925,8.222-0.905c2.521,2.02,2.926,5.701,0.906,8.222l-54.028,67.406
								C85.468,442.88,84.196,443.59,82.847,443.828z"/>
						</g>
					</g>
					<g id="XMLID_263_">
						<g id="XMLID_399_">
							<g id="XMLID_400_">
								<g id="XMLID_604_">
									<path id="XMLID_742_" style="fill:#E6332A;" d="M7.061,407.252c0,0,14.134-8.128,38.852,16.65
										c24.718,24.778,23.626-2.222,24.196-8.97c0.571-6.749,18.562-1.103,19.398,5.367c0.836,6.469-7.044,10.959-7.044,10.959
										s9.629-12.309,13.958-9.097c4.329,3.213,7.13,12.778,0.231,19.941c-6.899,7.163-24.413,25.893-27.472,29.892
										C66.122,475.993,7.061,407.252,7.061,407.252z"/>
								</g>
							</g>
						</g>
						<g id="XMLID_397_">
							<g id="XMLID_398_">
								<g id="XMLID_601_">
									<path id="XMLID_741_" style="fill:#FFFFFF;" d="M8.353,404.846c0,0,16.323-6.737,31.382,11.525l-2.542,2.536L8.353,404.846
										z"/>
								</g>
							</g>
						</g>
						<g id="XMLID_395_">
							<g id="XMLID_396_">
								<g id="XMLID_598_">
									<path id="XMLID_740_" style="fill:#FFFFFF;" d="M2.416,409.793l3.519-3.511c1.039-1.037,2.429-1.632,3.897-1.683
										c5.193-0.18,17.721,1.153,28.738,16.095c0,0,5.841,8.178,7.236,11.265c1.395,3.088,3.814,8.469,11.929,13.013
										c7.761,4.346,15.753,13.5,15.076,22.344c-0.055,0.723-0.324,1.415-0.794,1.967l-4.931,5.334l-35.281-42.966L2.416,409.793z
										"/>
								</g>
							</g>
						</g>
						<g id="XMLID_333_">
							<g id="XMLID_336_">
								<g id="XMLID_393_">
									<g id="XMLID_394_">
										<g id="XMLID_595_">
											<path id="XMLID_739_" style="fill:#EDEDED;" d="M44.124,433.818c0,0-12.81-26.133-32.452-26.96
												c-18.833-0.793-11.142,22.791-6.658,29.802c4.484,7.011,21.259,18.795,26.009,22.478s11.999,10.231,16.115,14.357
												c6.125,6.14,14.492,6.98,18.984,2.499c4.492-4.481,7.453-10.497-1.985-21.754
												C54.7,442.982,48.845,445.378,44.124,433.818z"/>
										</g>
									</g>
								</g>
								<g id="XMLID_391_">
									<g id="XMLID_392_">
										<g id="XMLID_592_">
											<path id="XMLID_738_" style="fill:#D3D3D3;" d="M43.121,435.965c0,0-12.366-24.097-29.881-25.288
												c-15.256-1.037-8.8,19.621-4.522,26.017c4.279,6.396,19.627,17.567,23.988,21.036s11.06,9.582,14.882,13.413
												c5.688,5.701,13.113,6.824,16.875,3.071s6.103-8.932-2.743-19.303C52.876,444.539,47.815,446.389,43.121,435.965z"/>
										</g>
									</g>
								</g>
								<g id="XMLID_337_">
									<defs>
										<path id="XMLID_712_" d="M44.111,433.832c0,0-12.81-26.133-32.452-26.96c-18.833-0.793-11.142,22.791-6.658,29.802
											c4.484,7.011,21.259,18.795,26.009,22.478s11.999,10.231,16.115,14.357c6.125,6.139,14.492,6.98,18.984,2.499
											c4.492-4.481,7.453-10.497-1.984-21.754C54.687,442.996,48.831,445.392,44.111,433.832z"/>
									</defs>
									<clipPath id="XMLID_00000036936468617283318490000013516561617330651050_">
										<use xlink:href="#XMLID_712_"  style="overflow:visible;"/>
									</clipPath>
									<g id="XMLID_340_" style="clip-path:url(#XMLID_00000036936468617283318490000013516561617330651050_);">
										<g id="XMLID_389_">
											<g id="XMLID_390_">
												<g id="XMLID_589_">
													
														<rect id="XMLID_737_" x="-8.993" y="414.147" transform="matrix(-0.708 0.7063 -0.7063 -0.708 303.3135 704.1627)" style="fill:#EDEDED;" width="30.12" height="1.293"/>
												</g>
											</g>
										</g>
										<g id="XMLID_387_">
											<g id="XMLID_388_">
												<g id="XMLID_586_">
													
														<rect id="XMLID_736_" x="-6.579" y="416.566" transform="matrix(-0.708 0.7063 -0.7063 -0.708 309.145 706.5902)" style="fill:#EDEDED;" width="30.12" height="1.293"/>
												</g>
											</g>
										</g>
										<g id="XMLID_385_">
											<g id="XMLID_386_">
												<g id="XMLID_583_">
													
														<rect id="XMLID_735_" x="-4.166" y="418.986" transform="matrix(-0.708 0.7063 -0.7063 -0.708 314.9764 709.0178)" style="fill:#EDEDED;" width="30.12" height="1.293"/>
												</g>
											</g>
										</g>
										<g id="XMLID_383_">
											<g id="XMLID_384_">
												<g id="XMLID_580_">
													
														<rect id="XMLID_734_" x="-1.752" y="421.405" transform="matrix(-0.708 0.7063 -0.7063 -0.708 320.8079 711.4453)" style="fill:#EDEDED;" width="30.12" height="1.293"/>
												</g>
											</g>
										</g>
										<g id="XMLID_381_">
											<g id="XMLID_382_">
												<g id="XMLID_577_">
													
														<rect id="XMLID_733_" x="0.662" y="423.825" transform="matrix(-0.708 0.7063 -0.7063 -0.708 326.6387 713.8736)" style="fill:#EDEDED;" width="30.12" height="1.293"/>
												</g>
											</g>
										</g>
										<g id="XMLID_379_">
											<g id="XMLID_380_">
												<g id="XMLID_574_">
													
														<rect id="XMLID_732_" x="3.075" y="426.245" transform="matrix(-0.708 0.7063 -0.7063 -0.708 332.4702 716.3011)" style="fill:#EDEDED;" width="30.12" height="1.293"/>
												</g>
											</g>
										</g>
										<g id="XMLID_377_">
											<g id="XMLID_378_">
												<g id="XMLID_571_">
													
														<rect id="XMLID_731_" x="5.489" y="428.664" transform="matrix(-0.708 0.7063 -0.7063 -0.708 338.3018 718.7285)" style="fill:#EDEDED;" width="30.12" height="1.293"/>
												</g>
											</g>
										</g>
										<g id="XMLID_375_">
											<g id="XMLID_376_">
												<g id="XMLID_568_">
													
														<rect id="XMLID_730_" x="7.903" y="431.083" transform="matrix(-0.708 0.7063 -0.7063 -0.708 344.1337 721.1555)" style="fill:#EDEDED;" width="30.12" height="1.293"/>
												</g>
											</g>
										</g>
										<g id="XMLID_373_">
											<g id="XMLID_374_">
												<g id="XMLID_565_">
													
														<rect id="XMLID_729_" x="10.317" y="433.503" transform="matrix(-0.708 0.7063 -0.7063 -0.708 349.9651 723.5832)" style="fill:#EDEDED;" width="30.12" height="1.292"/>
												</g>
											</g>
										</g>
										<g id="XMLID_371_">
											<g id="XMLID_372_">
												<g id="XMLID_562_">
													
														<rect id="XMLID_728_" x="12.73" y="435.923" transform="matrix(-0.708 0.7063 -0.7063 -0.708 355.7951 726.0124)" style="fill:#EDEDED;" width="30.12" height="1.293"/>
												</g>
											</g>
										</g>
										<g id="XMLID_369_">
											<g id="XMLID_370_">
												<g id="XMLID_559_">
													
														<rect id="XMLID_727_" x="15.144" y="438.342" transform="matrix(-0.708 0.7063 -0.7063 -0.708 361.6271 728.4393)" style="fill:#EDEDED;" width="30.12" height="1.293"/>
												</g>
											</g>
										</g>
										<g id="XMLID_367_">
											<g id="XMLID_368_">
												<g id="XMLID_556_">
													
														<rect id="XMLID_726_" x="17.558" y="440.762" transform="matrix(-0.708 0.7063 -0.7063 -0.708 367.4584 730.867)" style="fill:#EDEDED;" width="30.12" height="1.293"/>
												</g>
											</g>
										</g>
										<g id="XMLID_365_">
											<g id="XMLID_366_">
												<g id="XMLID_553_">
													
														<rect id="XMLID_725_" x="19.971" y="443.181" transform="matrix(-0.708 0.7063 -0.7063 -0.708 373.2897 733.2947)" style="fill:#EDEDED;" width="30.12" height="1.293"/>
												</g>
											</g>
										</g>
										<g id="XMLID_363_">
											<g id="XMLID_364_">
												<g id="XMLID_550_">
													
														<rect id="XMLID_724_" x="22.385" y="445.601" transform="matrix(-0.708 0.7063 -0.7063 -0.708 379.121 735.7224)" style="fill:#EDEDED;" width="30.12" height="1.293"/>
												</g>
											</g>
										</g>
										<g id="XMLID_361_">
											<g id="XMLID_362_">
												<g id="XMLID_547_">
													
														<rect id="XMLID_723_" x="24.799" y="448.02" transform="matrix(-0.708 0.7063 -0.7063 -0.708 384.9524 738.15)" style="fill:#EDEDED;" width="30.12" height="1.293"/>
												</g>
											</g>
										</g>
										<g id="XMLID_359_">
											<g id="XMLID_360_">
												<g id="XMLID_544_">
													
														<rect id="XMLID_722_" x="27.213" y="450.44" transform="matrix(-0.708 0.7063 -0.7063 -0.708 390.7837 740.5778)" style="fill:#EDEDED;" width="30.12" height="1.293"/>
												</g>
											</g>
										</g>
										<g id="XMLID_357_">
											<g id="XMLID_358_">
												<g id="XMLID_541_">
													
														<rect id="XMLID_721_" x="29.626" y="452.859" transform="matrix(-0.708 0.7063 -0.7063 -0.708 396.615 743.0054)" style="fill:#EDEDED;" width="30.12" height="1.293"/>
												</g>
											</g>
										</g>
										<g id="XMLID_355_">
											<g id="XMLID_356_">
												<g id="XMLID_538_">
													
														<rect id="XMLID_720_" x="32.04" y="455.279" transform="matrix(-0.708 0.7063 -0.7063 -0.708 402.4463 745.4332)" style="fill:#EDEDED;" width="30.12" height="1.292"/>
												</g>
											</g>
										</g>
										<g id="XMLID_353_">
											<g id="XMLID_354_">
												<g id="XMLID_535_">
													
														<rect id="XMLID_719_" x="34.454" y="457.698" transform="matrix(-0.708 0.7063 -0.7063 -0.708 408.277 747.8617)" style="fill:#EDEDED;" width="30.12" height="1.292"/>
												</g>
											</g>
										</g>
										<g id="XMLID_351_">
											<g id="XMLID_352_">
												<g id="XMLID_532_">
													
														<rect id="XMLID_718_" x="36.868" y="460.118" transform="matrix(-0.708 0.7063 -0.7063 -0.708 414.109 750.2885)" style="fill:#EDEDED;" width="30.12" height="1.293"/>
												</g>
											</g>
										</g>
										<g id="XMLID_349_">
											<g id="XMLID_350_">
												<g id="XMLID_529_">
													
														<rect id="XMLID_717_" x="39.281" y="462.537" transform="matrix(-0.708 0.7063 -0.7063 -0.708 419.941 752.7154)" style="fill:#EDEDED;" width="30.12" height="1.293"/>
												</g>
											</g>
										</g>
										<g id="XMLID_347_">
											<g id="XMLID_348_">
												<g id="XMLID_526_">
													
														<rect id="XMLID_716_" x="41.695" y="464.957" transform="matrix(-0.708 0.7063 -0.7063 -0.708 425.7722 755.1431)" style="fill:#EDEDED;" width="30.12" height="1.293"/>
												</g>
											</g>
										</g>
										<g id="XMLID_345_">
											<g id="XMLID_346_">
												<g id="XMLID_523_">
													
														<rect id="XMLID_715_" x="44.109" y="467.376" transform="matrix(-0.708 0.7063 -0.7063 -0.708 431.603 757.5717)" style="fill:#EDEDED;" width="30.12" height="1.293"/>
												</g>
											</g>
										</g>
										<g id="XMLID_343_">
											<g id="XMLID_344_">
												<g id="XMLID_520_">
													
														<rect id="XMLID_714_" x="46.522" y="469.796" transform="matrix(-0.708 0.7063 -0.7063 -0.708 437.4343 759.9993)" style="fill:#EDEDED;" width="30.12" height="1.293"/>
												</g>
											</g>
										</g>
										<g id="XMLID_341_">
											<g id="XMLID_342_">
												<g id="XMLID_517_">
													
														<rect id="XMLID_713_" x="48.936" y="472.215" transform="matrix(-0.708 0.7063 -0.7063 -0.708 443.2656 762.427)" style="fill:#EDEDED;" width="30.12" height="1.293"/>
												</g>
											</g>
										</g>
									</g>
								</g>
							</g>
							<g id="XMLID_334_">
								<g id="XMLID_335_">
									<g id="XMLID_508_">
										<path id="XMLID_711_" style="fill:#EDEDED;" d="M51.787,466.688c3.081,3.088,6.936,4.237,8.61,2.566
											c1.675-1.671,0.535-5.528-2.545-8.616c-3.081-3.088-6.935-4.237-8.61-2.566C47.567,459.742,48.707,463.6,51.787,466.688z"
											/>
									</g>
								</g>
							</g>
						</g>
						<g id="XMLID_331_">
							<g id="XMLID_332_">
								<g id="XMLID_504_">
									<path id="XMLID_710_" style="fill:#FFFFFF;" d="M81.955,445.107c1.59,1.594,4.738,1.031,7.032-1.257
										s2.864-5.435,1.274-7.029c-1.59-1.594-4.739-1.031-7.032,1.257C80.935,440.366,80.365,443.513,81.955,445.107z"/>
								</g>
							</g>
						</g>
						<g id="XMLID_329_">
							<g id="XMLID_330_">
								<g id="XMLID_501_">
									<path id="XMLID_709_" style="fill:#BE1622;" d="M89.096,423.908c0,0-12.093,11.954-16.821,13.861
										c-4.727,1.907-13.137-2.382-19.035-7.424c0,0,8.676,8.309,14.179-1.141c1.184-2.032,1.789-4.35,1.917-6.698l0.355-6.501
										c0.071-1.307,0.603-2.581,1.596-3.434c0.652-0.559,1.535-0.991,2.692-0.939c3.086,0.137,7.916,0.843,11.486,3.639
										C89.036,418.065,90.645,420.156,89.096,423.908z"/>
								</g>
							</g>
						</g>
						<g id="XMLID_324_">
							<g id="XMLID_328_">
								<g id="XMLID_498_">
									<path id="XMLID_708_" style="fill:#3C3C3B;" d="M85.065,431.085c0.32,0.321,0.839,0.321,1.16,0.001
										c0.321-0.32,0.321-0.839,0.001-1.16c-0.32-0.321-0.839-0.321-1.16-0.001C84.746,430.245,84.745,430.764,85.065,431.085z"/>
								</g>
							</g>
							<g id="XMLID_325_">
								<g id="XMLID_494_">
									<path id="XMLID_765_" style="fill:#FFFFFF;" d="M84.896,431.253c-0.412-0.413-0.411-1.086,0.002-1.498
										s1.086-0.411,1.498,0.002s0.411,1.086-0.002,1.498C85.98,431.667,85.308,431.667,84.896,431.253z M85.234,430.916
										c0.226,0.227,0.595,0.227,0.822,0.001c0.227-0.226,0.227-0.595,0.001-0.822c-0.226-0.227-0.595-0.227-0.822-0.001
										C85.008,430.32,85.008,430.689,85.234,430.916z"/>
								</g>
							</g>
						</g>
						<g id="XMLID_319_">
							<g id="XMLID_323_">
								<g id="XMLID_491_">
									<path id="XMLID_707_" style="fill:#3C3C3B;" d="M81.403,434.738c0.32,0.321,0.839,0.321,1.16,0.001
										c0.321-0.32,0.321-0.839,0.001-1.16c-0.32-0.321-0.839-0.321-1.16-0.001C81.084,433.898,81.083,434.417,81.403,434.738z"/>
								</g>
							</g>
							<g id="XMLID_320_">
								<g id="XMLID_487_">
									<path id="XMLID_764_" style="fill:#FFFFFF;" d="M81.234,434.906c-0.412-0.413-0.411-1.086,0.002-1.498
										c0.413-0.412,1.086-0.411,1.498,0.002c0.412,0.413,0.411,1.086-0.002,1.498C82.319,435.32,81.646,435.32,81.234,434.906z
										 M81.572,434.569c0.226,0.227,0.595,0.227,0.822,0.001c0.227-0.226,0.227-0.595,0.001-0.822
										c-0.226-0.227-0.595-0.227-0.822-0.001C81.346,433.973,81.346,434.342,81.572,434.569z"/>
								</g>
							</g>
						</g>
						<g id="XMLID_314_">
							<g id="XMLID_318_">
								<g id="XMLID_484_">
									<path id="XMLID_706_" style="fill:#3C3C3B;" d="M77.042,437.93c0.32,0.321,0.839,0.321,1.16,0.001
										c0.321-0.32,0.321-0.839,0.001-1.16c-0.32-0.321-0.839-0.321-1.16-0.001C76.723,437.09,76.722,437.609,77.042,437.93z"/>
								</g>
							</g>
							<g id="XMLID_315_">
								<g id="XMLID_480_">
									<path id="XMLID_763_" style="fill:#FFFFFF;" d="M76.873,438.099c-0.412-0.413-0.411-1.086,0.002-1.498
										c0.413-0.412,1.086-0.411,1.498,0.002s0.411,1.086-0.002,1.498S77.285,438.512,76.873,438.099z M77.211,437.761
										c0.226,0.227,0.595,0.227,0.822,0.001c0.227-0.226,0.227-0.595,0.001-0.822c-0.226-0.227-0.595-0.227-0.822-0.001
										C76.985,437.165,76.984,437.534,77.211,437.761z"/>
								</g>
							</g>
						</g>
						<g id="XMLID_309_">
							<g id="XMLID_313_">
								<g id="XMLID_477_">
									<path id="XMLID_705_" style="fill:#3C3C3B;" d="M72.348,440.616c0.32,0.321,0.839,0.321,1.16,0.001
										c0.321-0.32,0.321-0.839,0.001-1.16c-0.32-0.321-0.839-0.321-1.16-0.001C72.029,439.776,72.028,440.295,72.348,440.616z"/>
								</g>
							</g>
							<g id="XMLID_310_">
								<g id="XMLID_473_">
									<path id="XMLID_762_" style="fill:#FFFFFF;" d="M72.179,440.785c-0.412-0.413-0.411-1.086,0.002-1.498
										s1.086-0.411,1.498,0.002s0.411,1.086-0.002,1.498C73.263,441.199,72.591,441.198,72.179,440.785z M72.517,440.447
										c0.226,0.227,0.595,0.227,0.822,0.001c0.227-0.226,0.227-0.595,0.001-0.822c-0.226-0.227-0.595-0.227-0.822-0.001
										C72.291,439.851,72.291,440.22,72.517,440.447z"/>
								</g>
							</g>
						</g>
						<g id="XMLID_304_">
							<g id="XMLID_308_">
								<g id="XMLID_470_">
									<path id="XMLID_704_" style="fill:#3C3C3B;" d="M66.647,440.708c0.32,0.321,0.839,0.321,1.16,0.001
										c0.321-0.32,0.321-0.839,0.001-1.16c-0.32-0.321-0.839-0.321-1.16-0.001C66.328,439.868,66.327,440.388,66.647,440.708z"/>
								</g>
							</g>
							<g id="XMLID_305_">
								<g id="XMLID_466_">
									<path id="XMLID_761_" style="fill:#FFFFFF;" d="M66.478,440.878c-0.412-0.413-0.412-1.085,0.002-1.498
										c0.413-0.412,1.086-0.411,1.498,0.002c0.412,0.413,0.411,1.086-0.002,1.498C67.563,441.292,66.89,441.291,66.478,440.878z
										 M66.816,440.54c0.226,0.227,0.595,0.227,0.822,0.001c0.227-0.226,0.227-0.595,0.001-0.822
										c-0.226-0.227-0.595-0.227-0.822-0.001C66.59,439.944,66.59,440.313,66.816,440.54z"/>
								</g>
							</g>
						</g>
						<g id="XMLID_299_">
							<g id="XMLID_303_">
								<g id="XMLID_463_">
									<path id="XMLID_703_" style="fill:#3C3C3B;" d="M61.002,438.428c0.32,0.321,0.839,0.321,1.16,0.001
										c0.321-0.32,0.321-0.839,0.001-1.16c-0.32-0.321-0.839-0.321-1.16-0.001C60.682,437.588,60.682,438.108,61.002,438.428z"/>
								</g>
							</g>
							<g id="XMLID_300_">
								<g id="XMLID_459_">
									<path id="XMLID_760_" style="fill:#FFFFFF;" d="M60.832,438.597c-0.412-0.413-0.411-1.086,0.002-1.498
										s1.086-0.411,1.498,0.002s0.411,1.086-0.002,1.498C61.917,439.011,61.244,439.01,60.832,438.597z M61.17,438.259
										c0.226,0.227,0.595,0.227,0.822,0.001c0.227-0.226,0.227-0.595,0.001-0.822c-0.226-0.227-0.595-0.227-0.822-0.001
										C60.944,437.664,60.944,438.033,61.17,438.259z"/>
								</g>
							</g>
						</g>
						<g id="XMLID_294_">
							<g id="XMLID_298_">
								<g id="XMLID_456_">
									<path id="XMLID_702_" style="fill:#3C3C3B;" d="M56.427,436.165c0.32,0.321,0.839,0.321,1.16,0.001
										c0.321-0.32,0.321-0.839,0.001-1.16c-0.32-0.321-0.839-0.321-1.16-0.001C56.107,435.325,56.107,435.845,56.427,436.165z"/>
								</g>
							</g>
							<g id="XMLID_295_">
								<g id="XMLID_452_">
									<path id="XMLID_759_" style="fill:#FFFFFF;" d="M56.257,436.334c-0.412-0.413-0.411-1.086,0.002-1.498
										c0.413-0.412,1.086-0.411,1.498,0.002c0.412,0.413,0.411,1.086-0.002,1.498C57.342,436.748,56.669,436.747,56.257,436.334z
										 M56.595,435.996c0.226,0.227,0.595,0.227,0.822,0.001c0.227-0.226,0.227-0.595,0.001-0.822
										c-0.226-0.227-0.595-0.227-0.822-0.001C56.369,435.401,56.369,435.77,56.595,435.996z"/>
								</g>
							</g>
						</g>
						<g id="XMLID_289_">
							<g id="XMLID_293_">
								<g id="XMLID_449_">
									<path id="XMLID_701_" style="fill:#3C3C3B;" d="M52.19,432.552c0.32,0.321,0.839,0.321,1.16,0.001
										c0.321-0.32,0.321-0.839,0.001-1.16c-0.32-0.321-0.839-0.321-1.16-0.001C51.871,431.712,51.87,432.232,52.19,432.552z"/>
								</g>
							</g>
							<g id="XMLID_290_">
								<g id="XMLID_445_">
									<path id="XMLID_758_" style="fill:#FFFFFF;" d="M52.021,432.721c-0.412-0.413-0.411-1.085,0.002-1.498
										c0.413-0.412,1.085-0.411,1.498,0.002c0.412,0.413,0.411,1.085-0.002,1.498C53.105,433.135,52.433,433.134,52.021,432.721z
										 M52.359,432.384c0.226,0.227,0.595,0.227,0.822,0.001c0.227-0.226,0.227-0.595,0.001-0.822
										c-0.226-0.227-0.595-0.227-0.822-0.001C52.133,431.788,52.133,432.157,52.359,432.384z"/>
								</g>
							</g>
						</g>
						<g id="XMLID_284_">
							<g id="XMLID_288_">
								<g id="XMLID_442_">
									<path id="XMLID_700_" style="fill:#3C3C3B;" d="M47.314,427.665c0.32,0.321,0.839,0.321,1.16,0.001
										c0.321-0.32,0.321-0.839,0.001-1.16c-0.32-0.321-0.839-0.321-1.16-0.001C46.995,426.825,46.995,427.344,47.314,427.665z"/>
								</g>
							</g>
							<g id="XMLID_285_">
								<g id="XMLID_438_">
									<path id="XMLID_757_" style="fill:#FFFFFF;" d="M47.145,427.833c-0.412-0.413-0.411-1.086,0.002-1.498
										c0.413-0.412,1.086-0.411,1.498,0.002c0.412,0.413,0.411,1.086-0.002,1.498C48.23,428.247,47.557,428.247,47.145,427.833z
										 M47.483,427.496c0.226,0.227,0.595,0.227,0.822,0.001c0.227-0.226,0.227-0.595,0.001-0.822
										c-0.226-0.227-0.595-0.227-0.822-0.001C47.257,426.9,47.257,427.269,47.483,427.496z"/>
								</g>
							</g>
						</g>
						<g id="XMLID_282_">
							<g id="XMLID_283_">
								<g id="XMLID_435_">
									<path id="XMLID_699_" style="fill:#FFFFFF;" d="M86.067,430.928c0.056-0.056,0.102-0.125,0.134-0.203
										c0.121-0.306-0.03-0.653-0.335-0.775l-16.461-6.505c-0.307-0.121-0.653,0.034-0.775,0.335
										c-0.121,0.306,0.03,0.653,0.335,0.775l16.46,6.505C85.654,431.151,85.904,431.09,86.067,430.928z"/>
								</g>
							</g>
						</g>
						<g id="XMLID_280_">
							<g id="XMLID_281_">
								<g id="XMLID_432_">
									<path id="XMLID_698_" style="fill:#FFFFFF;" d="M82.405,434.581c0.049-0.049,0.091-0.107,0.121-0.174
										c0.136-0.3,0.005-0.655-0.294-0.791l-13.868-6.337c-0.3-0.138-0.654-0.004-0.791,0.294
										c-0.136,0.301-0.005,0.655,0.294,0.791l13.868,6.337C81.968,434.807,82.234,434.751,82.405,434.581z"/>
								</g>
							</g>
						</g>
						<g id="XMLID_278_">
							<g id="XMLID_279_">
								<g id="XMLID_429_">
									<path id="XMLID_697_" style="fill:#FFFFFF;" d="M78.043,437.774c0.026-0.026,0.05-0.055,0.072-0.086
										c0.187-0.272,0.117-0.643-0.156-0.829l-10.716-7.328c-0.273-0.187-0.647-0.115-0.829,0.156
										c-0.187,0.272-0.117,0.643,0.156,0.829l10.716,7.328C77.526,438.008,77.844,437.972,78.043,437.774z"/>
								</g>
							</g>
						</g>
						<g id="XMLID_276_">
							<g id="XMLID_277_">
								<g id="XMLID_426_">
									<path id="XMLID_696_" style="fill:#FFFFFF;" d="M73.351,440.458c0.219-0.218,0.236-0.572,0.031-0.811l-7.286-8.465
										c-0.216-0.249-0.592-0.278-0.842-0.064c-0.244,0.204-0.278,0.592-0.064,0.842l7.286,8.465
										c0.215,0.249,0.592,0.278,0.842,0.064C73.329,440.48,73.34,440.469,73.351,440.458z"/>
								</g>
							</g>
						</g>
						<g id="XMLID_274_">
							<g id="XMLID_275_">
								<g id="XMLID_423_">
									<path id="XMLID_695_" style="fill:#FFFFFF;" d="M67.65,440.551c0.195-0.194,0.235-0.504,0.08-0.745l-4.351-6.759
										c-0.179-0.277-0.548-0.357-0.825-0.179c-0.276,0.188-0.357,0.548-0.179,0.825l4.351,6.759
										c0.179,0.277,0.548,0.357,0.825,0.179C67.587,440.607,67.62,440.581,67.65,440.551z"/>
								</g>
							</g>
						</g>
						<g id="XMLID_272_">
							<g id="XMLID_273_">
								<g id="XMLID_420_">
									<path id="XMLID_694_" style="fill:#FFFFFF;" d="M62.003,438.271c0.142-0.142,0.209-0.352,0.16-0.561l-0.986-4.13
										c-0.078-0.321-0.399-0.519-0.72-0.443c-0.32,0.079-0.519,0.399-0.442,0.72l0.986,4.13c0.078,0.321,0.399,0.519,0.72,0.443
										C61.832,438.403,61.927,438.347,62.003,438.271z"/>
								</g>
							</g>
						</g>
						<g id="XMLID_270_">
							<g id="XMLID_271_">
								<g id="XMLID_417_">
									<path id="XMLID_693_" style="fill:#FFFFFF;" d="M57.323,436.113c0.082-0.081,0.14-0.186,0.164-0.307l0.557-2.82
										c0.063-0.323-0.147-0.637-0.47-0.701c-0.325-0.063-0.637,0.15-0.701,0.471l-0.557,2.82
										c-0.063,0.323,0.147,0.637,0.47,0.701C56.989,436.317,57.188,436.249,57.323,436.113z"/>
								</g>
							</g>
						</g>
						<g id="XMLID_268_">
							<g id="XMLID_269_">
								<g id="XMLID_414_">
									<path id="XMLID_692_" style="fill:#FFFFFF;" d="M53.086,432.501l1.251-1.248c0.233-0.233,0.234-0.61,0.001-0.844
										c-0.233-0.233-0.61-0.234-0.844-0.001l-1.251,1.248c-0.234,0.233-0.234,0.61-0.001,0.844
										C52.476,432.733,52.853,432.733,53.086,432.501z"/>
								</g>
							</g>
						</g>
						<g id="XMLID_266_">
							<g id="XMLID_267_">
								<g id="XMLID_411_">
									<path id="XMLID_691_" style="fill:#FFFFFF;" d="M48.316,427.508l1.416-1.413c0.233-0.233,0.234-0.61,0.001-0.844
										c-0.233-0.233-0.61-0.234-0.844-0.001l-1.416,1.413c-0.233,0.233-0.234,0.61-0.001,0.844
										C47.705,427.74,48.083,427.741,48.316,427.508z"/>
								</g>
							</g>
						</g>
						<g id="XMLID_264_">
							<g id="XMLID_265_">
								<g id="XMLID_408_">
									<path id="XMLID_690_" style="fill:#FFFFFF;" d="M115.368,428.498c2.373-2.367,4.444-4.8,5.806-6.401
										c0.583-0.686,1.008-1.187,1.233-1.411c0.233-0.233,0.234-0.61,0.001-0.844c-0.233-0.233-0.61-0.234-0.844-0.001
										c-0.247,0.247-0.688,0.765-1.299,1.482c-3.112,3.658-11.378,13.371-16.777,13.172c-1.208-0.044-2.179-0.592-2.968-1.67
										c-5.013-6.852-14.463-2.321-14.558-2.274c-0.293,0.149-0.418,0.503-0.272,0.798c0.144,0.296,0.501,0.418,0.798,0.274
										c0.35-0.172,8.648-4.135,13.069,1.907c1.005,1.374,2.313,2.1,3.888,2.158C107.106,435.821,111.615,432.241,115.368,428.498
										z"/>
								</g>
							</g>
						</g>
					</g>
				</g>
				<g id="XMLID_3_">
					<g id="XMLID_493_">
						<g id="XMLID_495_">
							<path id="XMLID_689_" d="M314.676,402.959c1.6-0.282,3.075-1.226,3.985-2.723c1.678-2.76,0.801-6.358-1.961-8.036
								l-73.82-44.868c-2.76-1.677-6.359-0.799-8.036,1.961c-1.678,2.76-0.8,6.358,1.961,8.036l73.82,44.868
								C311.888,402.964,313.327,403.197,314.676,402.959z"/>
						</g>
					</g>
					<g id="XMLID_4_">
						<g id="XMLID_489_">
							<g id="XMLID_490_">
								<g id="XMLID_492_">
									<path id="XMLID_688_" style="fill:#E6332A;" d="M373.387,342.673c0,0-16.061-2.805-30.817,28.931
										c-14.756,31.736-22.961,5.991-25.805-0.156c-2.844-6.147-17.82,5.311-16.394,11.676c1.427,6.365,10.367,7.89,10.367,7.89
										s-13.258-8.275-16.227-3.775c-2.969,4.499-2.33,14.446,6.602,18.818c8.932,4.372,31.795,15.984,36.037,18.696
										C341.392,427.466,373.387,342.673,373.387,342.673z"/>
								</g>
							</g>
						</g>
						<g id="XMLID_485_">
							<g id="XMLID_486_">
								<g id="XMLID_488_">
									<path id="XMLID_687_" style="fill:#FFFFFF;" d="M371.35,340.854c0,0-17.643-0.75-25.549,21.562l3.256,1.514L371.35,340.854
										z"/>
								</g>
							</g>
						</g>
						<g id="XMLID_481_">
							<g id="XMLID_482_">
								<g id="XMLID_483_">
									<path id="XMLID_686_" style="fill:#FFFFFF;" d="M378.62,343.472l-4.508-2.096c-1.331-0.619-2.841-0.703-4.237-0.249
										c-4.941,1.606-16.259,7.143-21.502,24.952c0,0-2.692,9.682-2.947,13.061c-0.255,3.378-0.688,9.263-6.76,16.308
										c-5.807,6.738-10.187,18.073-6.527,26.153c0.299,0.661,0.788,1.219,1.419,1.577l6.457,3.326l18.462-52.44L378.62,343.472z"
										/>
								</g>
							</g>
						</g>
						<g id="XMLID_225_">
							<g id="XMLID_229_">
								<g id="XMLID_476_">
									<g id="XMLID_478_">
										<g id="XMLID_479_">
											<path id="XMLID_685_" style="fill:#EDEDED;" d="M347.642,380.311c0,0,3.102-28.938,21.277-36.432
												c17.427-7.186,18.264,17.607,16.447,25.729c-1.817,8.121-13.551,24.931-16.755,30.017
												c-3.204,5.085-7.777,13.717-10.234,19.002c-3.656,7.864-11.232,11.515-16.985,8.84
												c-5.754-2.675-10.593-7.316-5.574-21.121C340.837,392.539,347.159,392.789,347.642,380.311z"/>
										</g>
									</g>
								</g>
								<g id="XMLID_472_">
									<g id="XMLID_474_">
										<g id="XMLID_475_">
											<path id="XMLID_684_" style="fill:#D3D3D3;" d="M349.318,381.985c0,0,3.38-26.873,19.433-33.981
												c13.982-6.191,14.979,15.429,13.146,22.902c-1.834,7.473-12.436,23.219-15.349,27.97
												c-2.912,4.751-7.117,12.786-9.399,17.694c-3.395,7.302-9.989,10.897-14.808,8.656c-4.819-2.241-8.789-6.307-4.023-19.077
												C343.083,393.379,348.472,393.386,349.318,381.985z"/>
										</g>
									</g>
								</g>
								<g id="XMLID_230_">
									<defs>
										<path id="XMLID_658_" d="M347.659,380.319c0,0,3.102-28.938,21.277-36.432c17.427-7.185,18.264,17.607,16.447,25.729
											s-13.551,24.931-16.755,30.017c-3.204,5.085-7.777,13.717-10.234,19.002c-3.656,7.864-11.231,11.515-16.985,8.84
											c-5.754-2.675-10.593-7.316-5.574-21.121S347.176,392.797,347.659,380.319z"/>
									</defs>
									<clipPath id="XMLID_00000048493500032309374970000003379832191122930314_">
										<use xlink:href="#XMLID_658_"  style="overflow:visible;"/>
									</clipPath>
									<g id="XMLID_234_" style="clip-path:url(#XMLID_00000048493500032309374970000003379832191122930314_);">
										<g id="XMLID_468_">
											<g id="XMLID_469_">
												<g id="XMLID_471_">
													
														<rect id="XMLID_683_" x="361.839" y="348.773" transform="matrix(0.9068 0.4216 -0.4216 0.9068 182.4492 -126.3285)" style="fill:#EDEDED;" width="30.12" height="1.293"/>
												</g>
											</g>
										</g>
										<g id="XMLID_464_">
											<g id="XMLID_465_">
												<g id="XMLID_467_">
													
														<rect id="XMLID_682_" x="360.398" y="351.872" transform="matrix(0.9068 0.4216 -0.4216 0.9068 183.6214 -125.4321)" style="fill:#EDEDED;" width="30.12" height="1.292"/>
												</g>
											</g>
										</g>
										<g id="XMLID_460_">
											<g id="XMLID_461_">
												<g id="XMLID_462_">
													
														<rect id="XMLID_681_" x="358.957" y="354.971" transform="matrix(0.9068 0.4216 -0.4216 0.9068 184.7937 -124.5357)" style="fill:#EDEDED;" width="30.12" height="1.292"/>
												</g>
											</g>
										</g>
										<g id="XMLID_455_">
											<g id="XMLID_457_">
												<g id="XMLID_458_">
													
														<rect id="XMLID_680_" x="357.516" y="358.07" transform="matrix(0.9068 0.4216 -0.4216 0.9068 185.9659 -123.6394)" style="fill:#EDEDED;" width="30.12" height="1.293"/>
												</g>
											</g>
										</g>
										<g id="XMLID_451_">
											<g id="XMLID_453_">
												<g id="XMLID_454_">
													
														<rect id="XMLID_679_" x="356.076" y="361.17" transform="matrix(0.9068 0.4216 -0.4216 0.9068 187.1382 -122.7431)" style="fill:#EDEDED;" width="30.12" height="1.293"/>
												</g>
											</g>
										</g>
										<g id="XMLID_447_">
											<g id="XMLID_448_">
												<g id="XMLID_450_">
													
														<rect id="XMLID_678_" x="354.635" y="364.269" transform="matrix(0.9068 0.4216 -0.4216 0.9068 188.3104 -121.8467)" style="fill:#EDEDED;" width="30.12" height="1.292"/>
												</g>
											</g>
										</g>
										<g id="XMLID_443_">
											<g id="XMLID_444_">
												<g id="XMLID_446_">
													
														<rect id="XMLID_677_" x="353.194" y="367.368" transform="matrix(0.9068 0.4216 -0.4216 0.9068 189.4826 -120.9503)" style="fill:#EDEDED;" width="30.12" height="1.293"/>
												</g>
											</g>
										</g>
										<g id="XMLID_439_">
											<g id="XMLID_440_">
												<g id="XMLID_441_">
													
														<rect id="XMLID_676_" x="351.753" y="370.467" transform="matrix(0.9068 0.4216 -0.4216 0.9068 190.6548 -120.054)" style="fill:#EDEDED;" width="30.12" height="1.293"/>
												</g>
											</g>
										</g>
										<g id="XMLID_434_">
											<g id="XMLID_436_">
												<g id="XMLID_437_">
													
														<rect id="XMLID_675_" x="350.312" y="373.566" transform="matrix(0.9068 0.4216 -0.4216 0.9068 191.827 -119.1576)" style="fill:#EDEDED;" width="30.12" height="1.292"/>
												</g>
											</g>
										</g>
										<g id="XMLID_430_">
											<g id="XMLID_431_">
												<g id="XMLID_433_">
													
														<rect id="XMLID_674_" x="348.871" y="376.665" transform="matrix(0.9068 0.4216 -0.4216 0.9068 192.9993 -118.2613)" style="fill:#EDEDED;" width="30.12" height="1.293"/>
												</g>
											</g>
										</g>
										<g id="XMLID_425_">
											<g id="XMLID_427_">
												<g id="XMLID_428_">
													
														<rect id="XMLID_673_" x="347.43" y="379.764" transform="matrix(0.9068 0.4216 -0.4216 0.9068 194.1716 -117.3649)" style="fill:#EDEDED;" width="30.12" height="1.293"/>
												</g>
											</g>
										</g>
										<g id="XMLID_421_">
											<g id="XMLID_422_">
												<g id="XMLID_424_">
													
														<rect id="XMLID_672_" x="345.99" y="382.863" transform="matrix(0.9068 0.4216 -0.4216 0.9068 195.3438 -116.4686)" style="fill:#EDEDED;" width="30.12" height="1.293"/>
												</g>
											</g>
										</g>
										<g id="XMLID_416_">
											<g id="XMLID_418_">
												<g id="XMLID_419_">
													
														<rect id="XMLID_671_" x="344.549" y="385.962" transform="matrix(0.9068 0.4216 -0.4216 0.9068 196.5161 -115.5722)" style="fill:#EDEDED;" width="30.12" height="1.293"/>
												</g>
											</g>
										</g>
										<g id="XMLID_412_">
											<g id="XMLID_413_">
												<g id="XMLID_415_">
													
														<rect id="XMLID_670_" x="343.108" y="389.061" transform="matrix(0.9068 0.4216 -0.4216 0.9068 197.6898 -114.6763)" style="fill:#EDEDED;" width="30.12" height="1.293"/>
												</g>
											</g>
										</g>
										<g id="XMLID_407_">
											<g id="XMLID_409_">
												<g id="XMLID_410_">
													
														<rect id="XMLID_669_" x="341.667" y="392.16" transform="matrix(0.9068 0.4216 -0.4216 0.9068 198.8605 -113.7795)" style="fill:#EDEDED;" width="30.12" height="1.293"/>
												</g>
											</g>
										</g>
										<g id="XMLID_404_">
											<g id="XMLID_405_">
												<g id="XMLID_406_">
													
														<rect id="XMLID_668_" x="340.226" y="395.259" transform="matrix(0.9068 0.4216 -0.4216 0.9068 200.0327 -112.8831)" style="fill:#EDEDED;" width="30.12" height="1.293"/>
												</g>
											</g>
										</g>
										<g id="XMLID_259_">
											<g id="XMLID_260_">
												<g id="XMLID_402_">
													
														<rect id="XMLID_667_" x="338.785" y="398.358" transform="matrix(0.9068 0.4216 -0.4216 0.9068 201.205 -111.9868)" style="fill:#EDEDED;" width="30.12" height="1.292"/>
												</g>
											</g>
										</g>
										<g id="XMLID_256_">
											<g id="XMLID_257_">
												<g id="XMLID_258_">
													
														<rect id="XMLID_666_" x="337.344" y="401.457" transform="matrix(0.9068 0.4216 -0.4216 0.9068 202.3772 -111.0904)" style="fill:#EDEDED;" width="30.12" height="1.293"/>
												</g>
											</g>
										</g>
										<g id="XMLID_253_">
											<g id="XMLID_254_">
												<g id="XMLID_255_">
													
														<rect id="XMLID_665_" x="335.903" y="404.556" transform="matrix(0.9068 0.4216 -0.4216 0.9068 203.5494 -110.1941)" style="fill:#EDEDED;" width="30.12" height="1.293"/>
												</g>
											</g>
										</g>
										<g id="XMLID_250_">
											<g id="XMLID_251_">
												<g id="XMLID_252_">
													
														<rect id="XMLID_664_" x="334.463" y="407.655" transform="matrix(0.9068 0.4216 -0.4216 0.9068 204.7217 -109.2977)" style="fill:#EDEDED;" width="30.12" height="1.292"/>
												</g>
											</g>
										</g>
										<g id="XMLID_247_">
											<g id="XMLID_248_">
												<g id="XMLID_249_">
													
														<rect id="XMLID_663_" x="333.022" y="410.754" transform="matrix(0.9068 0.4216 -0.4216 0.9068 205.8955 -108.4018)" style="fill:#EDEDED;" width="30.12" height="1.293"/>
												</g>
											</g>
										</g>
										<g id="XMLID_244_">
											<g id="XMLID_245_">
												<g id="XMLID_246_">
													
														<rect id="XMLID_662_" x="331.581" y="413.853" transform="matrix(0.9068 0.4216 -0.4216 0.9068 207.0661 -107.505)" style="fill:#EDEDED;" width="30.12" height="1.293"/>
												</g>
											</g>
										</g>
										<g id="XMLID_241_">
											<g id="XMLID_242_">
												<g id="XMLID_243_">
													
														<rect id="XMLID_661_" x="330.14" y="416.952" transform="matrix(0.9068 0.4216 -0.4216 0.9068 208.2384 -106.6087)" style="fill:#EDEDED;" width="30.12" height="1.293"/>
												</g>
											</g>
										</g>
										<g id="XMLID_238_">
											<g id="XMLID_239_">
												<g id="XMLID_240_">
													
														<rect id="XMLID_660_" x="328.699" y="420.051" transform="matrix(0.9068 0.4216 -0.4216 0.9068 209.4105 -105.7123)" style="fill:#EDEDED;" width="30.12" height="1.292"/>
												</g>
											</g>
										</g>
										<g id="XMLID_235_">
											<g id="XMLID_236_">
												<g id="XMLID_237_">
													
														<rect id="XMLID_659_" x="327.258" y="423.15" transform="matrix(0.9068 0.4216 -0.4216 0.9068 210.5836 -104.8161)" style="fill:#EDEDED;" width="30.12" height="1.293"/>
												</g>
											</g>
										</g>
									</g>
								</g>
							</g>
							<g id="XMLID_226_">
								<g id="XMLID_227_">
									<g id="XMLID_228_">
										<path id="XMLID_657_" style="fill:#EDEDED;" d="M351.68,413.82c-1.839,3.955-5.069,6.353-7.214,5.356
											c-2.145-0.997-2.393-5.012-0.554-8.967c1.839-3.955,5.069-6.353,7.214-5.356
											C353.271,405.85,353.519,409.865,351.68,413.82z"/>
									</g>
								</g>
							</g>
						</g>
						<g id="XMLID_222_">
							<g id="XMLID_223_">
								<g id="XMLID_224_">
									<path id="XMLID_656_" style="fill:#FFFFFF;" d="M315.952,403.856c-0.949,2.042-4.1,2.589-7.038,1.223
										c-2.938-1.366-4.55-4.128-3.601-6.17c0.949-2.042,4.1-2.589,7.038-1.223C315.289,399.052,316.901,401.815,315.952,403.856z
										"/>
								</g>
							</g>
						</g>
						<g id="XMLID_219_">
							<g id="XMLID_220_">
								<g id="XMLID_221_">
									<path id="XMLID_655_" style="fill:#BE1622;" d="M301.992,386.377c0,0,15.452,7.098,20.547,7.274
										c5.095,0.176,11.531-6.73,15.349-13.485c0,0-5.311,10.775-13.715,3.776c-1.807-1.505-3.168-3.476-4.092-5.639l-2.557-5.988
										c-0.514-1.204-1.449-2.219-2.674-2.681c-0.804-0.303-1.781-0.406-2.851,0.038c-2.853,1.184-7.15,3.499-9.549,7.347
										C300.051,380.866,299.253,383.381,301.992,386.377z"/>
								</g>
							</g>
						</g>
						<g id="XMLID_212_">
							<g id="XMLID_217_">
								<g id="XMLID_218_">
									<circle id="XMLID_654_" style="fill:#3C3C3B;" cx="307.49" cy="391.397" r="0.82"/>
								</g>
							</g>
							<g id="XMLID_213_">
								<g id="XMLID_214_">
									<path id="XMLID_753_" style="fill:#FFFFFF;" d="M307.044,392.357c-0.529-0.246-0.76-0.878-0.514-1.407
										c0.246-0.529,0.878-0.76,1.407-0.514c0.529,0.246,0.76,0.878,0.514,1.407C308.205,392.372,307.573,392.603,307.044,392.357
										z M307.736,390.869c-0.29-0.135-0.637-0.008-0.772,0.282c-0.135,0.29-0.008,0.637,0.282,0.772
										c0.29,0.135,0.637,0.009,0.772-0.282C308.153,391.351,308.026,391.004,307.736,390.869z"/>
								</g>
							</g>
						</g>
						<g id="XMLID_205_">
							<g id="XMLID_210_">
								<g id="XMLID_211_">
									<path id="XMLID_653_" style="fill:#3C3C3B;" d="M312.924,393.923c-0.191,0.411-0.679,0.589-1.09,0.398
										c-0.411-0.191-0.589-0.679-0.398-1.09c0.191-0.411,0.679-0.589,1.09-0.398
										C312.937,393.025,313.115,393.513,312.924,393.923z"/>
								</g>
							</g>
							<g id="XMLID_206_">
								<g id="XMLID_207_">
									<path id="XMLID_751_" style="fill:#FFFFFF;" d="M311.734,394.538c-0.529-0.246-0.76-0.878-0.514-1.407
										c0.246-0.529,0.878-0.76,1.407-0.514c0.529,0.246,0.76,0.878,0.514,1.407C312.895,394.553,312.263,394.784,311.734,394.538
										z M312.426,393.05c-0.29-0.135-0.637-0.008-0.772,0.282c-0.135,0.29-0.008,0.637,0.282,0.772
										c0.291,0.135,0.637,0.009,0.772-0.282C312.843,393.532,312.716,393.185,312.426,393.05z"/>
								</g>
							</g>
						</g>
						<g id="XMLID_198_">
							<g id="XMLID_203_">
								<g id="XMLID_204_">
									<path id="XMLID_652_" style="fill:#3C3C3B;" d="M318.114,395.432c-0.191,0.411-0.679,0.589-1.09,0.398
										c-0.411-0.191-0.589-0.679-0.398-1.09c0.191-0.411,0.679-0.589,1.09-0.398
										C318.127,394.533,318.305,395.021,318.114,395.432z"/>
								</g>
							</g>
							<g id="XMLID_199_">
								<g id="XMLID_200_">
									<path id="XMLID_750_" style="fill:#FFFFFF;" d="M316.924,396.046c-0.529-0.246-0.76-0.878-0.514-1.407
										c0.246-0.529,0.878-0.76,1.407-0.514s0.76,0.878,0.514,1.407C318.085,396.062,317.454,396.292,316.924,396.046z
										 M317.616,394.559c-0.291-0.135-0.637-0.009-0.772,0.282c-0.135,0.291-0.008,0.637,0.282,0.772
										c0.291,0.135,0.637,0.008,0.772-0.282C318.033,395.04,317.906,394.694,317.616,394.559z"/>
								</g>
							</g>
						</g>
						<g id="XMLID_191_">
							<g id="XMLID_196_">
								<g id="XMLID_197_">
									<path id="XMLID_651_" style="fill:#3C3C3B;" d="M323.443,396.351c-0.191,0.411-0.679,0.589-1.09,0.398
										s-0.589-0.679-0.398-1.09c0.191-0.411,0.679-0.589,1.09-0.398C323.456,395.452,323.634,395.94,323.443,396.351z"/>
								</g>
							</g>
							<g id="XMLID_192_">
								<g id="XMLID_193_">
									<path id="XMLID_749_" style="fill:#FFFFFF;" d="M322.253,396.965c-0.529-0.246-0.76-0.878-0.514-1.407
										c0.246-0.529,0.878-0.76,1.407-0.514c0.529,0.246,0.76,0.878,0.514,1.407C323.414,396.981,322.783,397.211,322.253,396.965
										z M322.945,395.478c-0.291-0.135-0.637-0.008-0.772,0.282c-0.135,0.291-0.008,0.637,0.282,0.772
										c0.291,0.135,0.637,0.008,0.772-0.282S323.236,395.613,322.945,395.478z"/>
								</g>
							</g>
						</g>
						<g id="XMLID_184_">
							<g id="XMLID_189_">
								<g id="XMLID_190_">
									<path id="XMLID_650_" style="fill:#3C3C3B;" d="M328.833,394.488c-0.191,0.411-0.679,0.589-1.09,0.398
										c-0.411-0.191-0.589-0.679-0.398-1.09c0.191-0.411,0.679-0.589,1.09-0.398
										C328.845,393.589,329.024,394.077,328.833,394.488z"/>
								</g>
							</g>
							<g id="XMLID_185_">
								<g id="XMLID_186_">
									<path id="XMLID_748_" style="fill:#FFFFFF;" d="M327.642,395.103c-0.529-0.246-0.76-0.878-0.514-1.407
										c0.246-0.529,0.878-0.76,1.407-0.514c0.529,0.246,0.76,0.878,0.514,1.407C328.803,395.119,328.172,395.349,327.642,395.103
										z M328.334,393.616c-0.291-0.135-0.637-0.008-0.772,0.282c-0.135,0.291-0.009,0.637,0.282,0.772
										c0.29,0.135,0.637,0.008,0.772-0.282C328.751,394.097,328.625,393.751,328.334,393.616z"/>
								</g>
							</g>
						</g>
						<g id="XMLID_177_">
							<g id="XMLID_182_">
								<g id="XMLID_183_">
									<path id="XMLID_649_" style="fill:#3C3C3B;" d="M333.358,390.415c-0.191,0.411-0.679,0.589-1.09,0.398
										c-0.411-0.191-0.589-0.679-0.398-1.09s0.679-0.589,1.09-0.398S333.549,390.004,333.358,390.415z"/>
								</g>
							</g>
							<g id="XMLID_178_">
								<g id="XMLID_179_">
									<path id="XMLID_617_" style="fill:#FFFFFF;" d="M332.168,391.029c-0.529-0.246-0.76-0.878-0.514-1.407
										c0.246-0.529,0.878-0.76,1.407-0.514c0.529,0.246,0.76,0.878,0.514,1.407C333.329,391.045,332.697,391.275,332.168,391.029
										z M332.86,389.542c-0.291-0.135-0.637-0.008-0.772,0.282c-0.135,0.291-0.009,0.637,0.282,0.772
										c0.29,0.135,0.637,0.009,0.772-0.282C333.277,390.023,333.15,389.677,332.86,389.542z"/>
								</g>
							</g>
						</g>
						<g id="XMLID_170_">
							<g id="XMLID_175_">
								<g id="XMLID_176_">
									<path id="XMLID_648_" style="fill:#3C3C3B;" d="M336.883,386.724c-0.191,0.411-0.679,0.589-1.09,0.398
										c-0.411-0.191-0.589-0.679-0.398-1.09c0.191-0.411,0.679-0.589,1.09-0.398
										C336.896,385.825,337.074,386.313,336.883,386.724z"/>
								</g>
							</g>
							<g id="XMLID_171_">
								<g id="XMLID_172_">
									<path id="XMLID_615_" style="fill:#FFFFFF;" d="M335.693,387.338c-0.529-0.246-0.76-0.878-0.514-1.407
										c0.246-0.529,0.878-0.76,1.407-0.514c0.529,0.246,0.76,0.878,0.514,1.407C336.854,387.354,336.223,387.584,335.693,387.338
										z M336.385,385.851c-0.291-0.135-0.637-0.009-0.772,0.282c-0.135,0.29-0.009,0.637,0.282,0.772
										c0.291,0.135,0.637,0.009,0.772-0.282C336.802,386.332,336.676,385.986,336.385,385.851z"/>
								</g>
							</g>
						</g>
						<g id="XMLID_152_">
							<g id="XMLID_157_">
								<g id="XMLID_158_">
									<path id="XMLID_647_" style="fill:#3C3C3B;" d="M339.629,381.88c-0.191,0.411-0.679,0.589-1.09,0.398
										c-0.411-0.191-0.589-0.679-0.398-1.09c0.191-0.411,0.679-0.589,1.09-0.398S339.82,381.469,339.629,381.88z"/>
								</g>
							</g>
							<g id="XMLID_153_">
								<g id="XMLID_154_">
									<path id="XMLID_614_" style="fill:#FFFFFF;" d="M338.439,382.495c-0.529-0.246-0.76-0.878-0.514-1.407
										c0.246-0.529,0.878-0.76,1.407-0.514c0.529,0.246,0.76,0.878,0.514,1.407C339.6,382.51,338.968,382.741,338.439,382.495z
										 M339.131,381.007c-0.291-0.135-0.637-0.008-0.772,0.282s-0.008,0.637,0.282,0.772c0.291,0.135,0.637,0.008,0.772-0.282
										C339.548,381.489,339.421,381.142,339.131,381.007z"/>
								</g>
							</g>
						</g>
						<g id="XMLID_106_">
							<g id="XMLID_150_">
								<g id="XMLID_151_">
									<path id="XMLID_646_" style="fill:#3C3C3B;" d="M342.539,375.62c-0.191,0.411-0.679,0.589-1.09,0.398
										c-0.411-0.191-0.589-0.679-0.398-1.09c0.191-0.411,0.679-0.589,1.09-0.398S342.73,375.209,342.539,375.62z"/>
								</g>
							</g>
							<g id="XMLID_107_">
								<g id="XMLID_108_">
									<path id="XMLID_613_" style="fill:#FFFFFF;" d="M341.349,376.234c-0.529-0.246-0.76-0.878-0.514-1.407
										c0.246-0.529,0.878-0.76,1.407-0.514c0.529,0.246,0.76,0.878,0.514,1.407C342.51,376.25,341.879,376.48,341.349,376.234z
										 M342.041,374.747c-0.291-0.135-0.637-0.008-0.772,0.282c-0.135,0.291-0.008,0.637,0.282,0.772
										c0.291,0.135,0.637,0.008,0.772-0.282C342.458,375.229,342.332,374.882,342.041,374.747z"/>
								</g>
							</g>
						</g>
						<g id="XMLID_103_">
							<g id="XMLID_104_">
								<g id="XMLID_105_">
									<path id="XMLID_645_" style="fill:#FFFFFF;" d="M307.239,391.938c-0.072-0.033-0.139-0.083-0.195-0.145
										c-0.218-0.247-0.195-0.624,0.05-0.843l13.244-11.742c0.247-0.219,0.625-0.191,0.843,0.05
										c0.218,0.247,0.195,0.624-0.05,0.843l-13.244,11.742C307.703,392.006,307.447,392.034,307.239,391.938z"/>
								</g>
							</g>
						</g>
						<g id="XMLID_100_">
							<g id="XMLID_101_">
								<g id="XMLID_102_">
									<path id="XMLID_639_" style="fill:#FFFFFF;" d="M311.929,394.118c-0.063-0.029-0.122-0.069-0.173-0.122
										c-0.231-0.236-0.229-0.614,0.006-0.844l10.865-10.697c0.235-0.232,0.613-0.228,0.844,0.006
										c0.231,0.236,0.229,0.614-0.006,0.844L312.6,394.002C312.417,394.182,312.148,394.22,311.929,394.118z"/>
								</g>
							</g>
						</g>
						<g id="XMLID_97_">
							<g id="XMLID_98_">
								<g id="XMLID_99_">
									<path id="XMLID_638_" style="fill:#FFFFFF;" d="M317.12,395.627c-0.034-0.016-0.066-0.035-0.097-0.057
										c-0.268-0.191-0.33-0.565-0.137-0.832l7.564-10.551c0.192-0.269,0.568-0.329,0.832-0.137
										c0.268,0.192,0.33,0.565,0.137,0.832l-7.564,10.551C317.686,395.671,317.375,395.746,317.12,395.627z"/>
								</g>
							</g>
						</g>
						<g id="XMLID_76_">
							<g id="XMLID_77_">
								<g id="XMLID_84_">
									<path id="XMLID_632_" style="fill:#FFFFFF;" d="M322.447,396.545c-0.28-0.13-0.417-0.457-0.306-0.751l3.952-10.447
										c0.117-0.308,0.461-0.464,0.77-0.348c0.299,0.108,0.464,0.461,0.348,0.77l-3.952,10.447
										c-0.117,0.308-0.461,0.464-0.769,0.348C322.475,396.558,322.461,396.552,322.447,396.545z"/>
								</g>
							</g>
						</g>
						<g id="XMLID_73_">
							<g id="XMLID_74_">
								<g id="XMLID_75_">
									<path id="XMLID_631_" style="fill:#FFFFFF;" d="M327.836,394.683c-0.249-0.116-0.393-0.393-0.33-0.672l1.778-7.839
										c0.074-0.322,0.393-0.523,0.714-0.45c0.324,0.083,0.523,0.393,0.45,0.714l-1.778,7.839
										c-0.074,0.322-0.393,0.523-0.714,0.45C327.914,394.714,327.874,394.701,327.836,394.683z"/>
								</g>
							</g>
						</g>
						<g id="XMLID_70_">
							<g id="XMLID_71_">
								<g id="XMLID_72_">
									<path id="XMLID_629_" style="fill:#FFFFFF;" d="M332.363,390.61c-0.182-0.085-0.316-0.259-0.342-0.472l-0.486-4.218
										c-0.036-0.328,0.198-0.624,0.525-0.662c0.327-0.035,0.624,0.198,0.662,0.525l0.485,4.218
										c0.036,0.328-0.198,0.624-0.525,0.662C332.569,390.675,332.46,390.655,332.363,390.61z"/>
								</g>
							</g>
						</g>
						<g id="XMLID_67_">
							<g id="XMLID_68_">
								<g id="XMLID_69_">
									<path id="XMLID_627_" style="fill:#FFFFFF;" d="M336.024,386.982c-0.105-0.049-0.195-0.127-0.259-0.232l-1.488-2.46
										c-0.17-0.282-0.08-0.649,0.202-0.819c0.283-0.17,0.65-0.077,0.819,0.202l1.488,2.46c0.17,0.282,0.08,0.649-0.202,0.819
										C336.407,387.058,336.197,387.062,336.024,386.982z"/>
								</g>
							</g>
						</g>
						<g id="XMLID_60_">
							<g id="XMLID_62_">
								<g id="XMLID_66_">
									<path id="XMLID_626_" style="fill:#FFFFFF;" d="M338.769,382.138l-1.603-0.745c-0.299-0.139-0.428-0.493-0.289-0.792
										c0.139-0.299,0.493-0.428,0.793-0.29l1.603,0.745c0.299,0.139,0.428,0.493,0.289,0.793
										C339.423,382.147,339.068,382.277,338.769,382.138z"/>
								</g>
							</g>
						</g>
						<g id="XMLID_28_">
							<g id="XMLID_58_">
								<g id="XMLID_59_">
									<path id="XMLID_625_" style="fill:#FFFFFF;" d="M341.544,375.815l-1.814-0.843c-0.299-0.139-0.428-0.493-0.289-0.793
										c0.139-0.299,0.493-0.428,0.792-0.289l1.814,0.843c0.299,0.139,0.428,0.493,0.289,0.793
										C342.198,375.824,341.844,375.954,341.544,375.815z"/>
								</g>
							</g>
						</g>
						<g id="XMLID_7_">
							<g id="XMLID_22_">
								<g id="XMLID_25_">
									<path id="XMLID_624_" style="fill:#FFFFFF;" d="M278.873,399.673c-3.04-1.413-5.818-2.991-7.645-4.03
										c-0.783-0.445-1.353-0.771-1.641-0.904c-0.299-0.139-0.428-0.493-0.289-0.792c0.139-0.299,0.493-0.428,0.792-0.289
										c0.317,0.147,0.908,0.484,1.727,0.948c4.175,2.373,15.265,8.674,20.27,6.641c1.12-0.455,1.845-1.301,2.218-2.585
										c2.368-8.153,12.798-7.127,12.903-7.115c0.326,0.04,0.565,0.33,0.529,0.657c-0.034,0.327-0.328,0.565-0.656,0.53
										c-0.388-0.042-9.541-0.929-11.629,6.26c-0.475,1.635-1.455,2.765-2.915,3.358
										C289.141,403.731,283.68,401.908,278.873,399.673z"/>
								</g>
							</g>
						</g>
					</g>
				</g>
				<g id="XMLID_503_">
					<g id="XMLID_497_">
						<path id="XMLID_618_" style="fill:#D3D3D3;" d="M156.187,286.845l-0.394,0.802c-1.16,2.363-4.042,3.347-6.404,2.187
							L115.711,273.3c-2.363-1.16-3.347-4.042-2.187-6.404l0.394-0.802c1.16-2.363,4.042-3.347,6.405-2.187L154,280.441
							C156.363,281.601,157.347,284.483,156.187,286.845z"/>
					</g>
					<g id="XMLID_505_">
						<path id="XMLID_607_" style="fill:#D3D3D3;" d="M118.221,293.538l0.644,0.619c1.898,1.823,4.943,1.763,6.766-0.135
							l25.994-27.053c1.824-1.898,1.763-4.942-0.135-6.766l-0.644-0.619c-1.898-1.824-4.943-1.763-6.766,0.135l-25.994,27.053
							C116.263,288.67,116.323,291.715,118.221,293.538z"/>
					</g>
				</g>
				<g id="XMLID_509_">
					<g id="XMLID_511_">
						<path id="XMLID_620_" style="fill:#D3D3D3;" d="M239.348,272.185l-0.394,0.802c-1.16,2.363-4.042,3.347-6.404,2.187
							l-33.678-16.534c-2.363-1.16-3.347-4.042-2.187-6.404l0.394-0.802c1.16-2.363,4.042-3.347,6.404-2.187l33.678,16.533
							C239.524,266.94,240.508,269.822,239.348,272.185z"/>
					</g>
					<g id="XMLID_510_">
						<path id="XMLID_619_" style="fill:#D3D3D3;" d="M201.382,278.878l0.644,0.619c1.898,1.824,4.943,1.763,6.766-0.135
							l25.994-27.053c1.824-1.898,1.763-4.943-0.135-6.766l-0.644-0.619c-1.898-1.824-4.943-1.763-6.766,0.135l-25.994,27.053
							C199.423,274.01,199.484,277.054,201.382,278.878z"/>
					</g>
				</g>
				<g id="XMLID_515_">
					<g id="XMLID_506_">
						<g id="XMLID_512_">
							<path id="XMLID_616_" style="fill:#D3D3D3;" d="M126.142,338.714c-3.109,0.457-6.037-1.642-6.586-4.757
								c-1.49-8.451,4.173-16.538,12.624-18.028c8.432-1.496,16.538,4.174,18.027,12.623c0.559,3.172-1.558,6.195-4.73,6.755
								c-3.186,0.524-6.196-1.559-6.754-4.73c-0.374-2.119-2.403-3.553-4.519-3.163c-2.118,0.373-3.537,2.4-3.164,4.517
								c0.56,3.172-1.558,6.195-4.73,6.755C126.254,338.697,126.198,338.706,126.142,338.714z"/>
						</g>
						<g id="XMLID_514_">
							<path id="XMLID_612_" style="fill:#D3D3D3;" d="M156.298,343.275c-3.945,0.579-7.897-0.355-11.176-2.651
								c-3.405-2.385-5.678-5.952-6.399-10.046c-0.559-3.172,1.558-6.195,4.73-6.755c3.198-0.525,6.196,1.559,6.754,4.73
								c0.373,2.118,2.36,3.542,4.518,3.164c2.118-0.373,3.537-2.4,3.164-4.517c-0.559-3.172,1.558-6.195,4.73-6.755
								c3.203-0.526,6.196,1.559,6.754,4.73c1.49,8.451-4.173,16.538-12.624,18.028C156.6,343.229,156.449,343.253,156.298,343.275z
								"/>
						</g>
					</g>
					<g id="XMLID_516_">
						<g id="XMLID_519_">
							<path id="XMLID_611_" style="fill:#D3D3D3;" d="M164.476,331.957c-3.109,0.457-6.037-1.642-6.586-4.757
								c-1.49-8.452,4.173-16.539,12.624-18.029c8.437-1.492,16.538,4.175,18.027,12.625c0.559,3.172-1.558,6.195-4.73,6.755
								c-3.177,0.525-6.195-1.559-6.754-4.73c-0.374-2.118-2.413-3.554-4.52-3.164c-2.117,0.373-3.537,2.4-3.163,4.518
								c0.559,3.172-1.558,6.195-4.73,6.755C164.588,331.939,164.532,331.948,164.476,331.957z"/>
						</g>
						<g id="XMLID_518_">
							<path id="XMLID_610_" style="fill:#D3D3D3;" d="M194.638,336.517c-8.287,1.217-16.118-4.394-17.581-12.696
								c-0.559-3.172,1.558-6.195,4.73-6.755c3.178-0.521,6.196,1.559,6.754,4.73c0.374,2.118,2.429,3.544,4.519,3.164
								c2.118-0.373,3.537-2.4,3.164-4.517c-0.56-3.172,1.558-6.195,4.73-6.755c3.182-0.521,6.196,1.559,6.754,4.73
								c1.49,8.451-4.173,16.538-12.624,18.028C194.936,336.471,194.786,336.495,194.638,336.517z"/>
						</g>
					</g>
					<g id="XMLID_521_">
						<g id="XMLID_524_">
							<path id="XMLID_609_" style="fill:#D3D3D3;" d="M202.81,325.199c-3.109,0.457-6.037-1.642-6.586-4.757
								c-1.49-8.452,4.173-16.539,12.624-18.029c8.438-1.496,16.538,4.173,18.028,12.624c0.559,3.172-1.558,6.195-4.73,6.755
								c-3.168,0.526-6.196-1.559-6.754-4.73c-0.373-2.119-2.365-3.516-4.519-3.164c-2.118,0.373-3.537,2.4-3.164,4.518
								c0.56,3.172-1.558,6.196-4.73,6.755C202.922,325.181,202.866,325.191,202.81,325.199z"/>
						</g>
						<g id="XMLID_522_">
							<path id="XMLID_608_" style="fill:#D3D3D3;" d="M232.971,329.759c-8.287,1.217-16.117-4.394-17.58-12.696
								c-0.559-3.172,1.558-6.195,4.73-6.755c3.187-0.52,6.195,1.559,6.754,4.73c0.374,2.119,2.375,3.52,4.519,3.164
								c2.118-0.373,3.537-2.4,3.164-4.517c-0.559-3.172,1.558-6.195,4.73-6.755c3.192-0.52,6.196,1.559,6.754,4.73
								c1.49,8.451-4.173,16.538-12.624,18.028C233.269,329.713,233.12,329.737,232.971,329.759z"/>
						</g>
					</g>
				</g>
			</g>
		</g>
		<g id="XMLID_2_">
			<path id="XMLID_44_" style="fill:#FFFFFF;" d="M384.78,50.328c7.358,1.068,14.69-2.273,19.089-8.267
				c3.87-5.272,11.718-12.016,24.065-5.245c18.557,10.176,21.55,20.952,40.107,24.543c18.557,3.592,22.989,17.959,12.392,28.734
				c-10.596,10.775-12.392,22.748-7.005,32.326c5.388,9.578,8.449,34.121-10.442,35.917c-18.891,1.796-30.264-1.796-35.652,13.17
				c-5.388,14.965-26.807,33.522-52.913,17.958c-26.105-15.564-52.15-0.755-62.075-2.472c-9.924-1.718-18.749-11.296-16.133-24.865
				c2.616-13.569-1.803-27.137-11.765-33.523c0,0-12.236-3.485-15.19-18.903c-2.954-15.418-0.478-32.179,22.528-39.961
				s16.605-25.453,36.866-35.774c20.261-10.32,34.791-3.237,40.482,3.448C373.528,42.572,377.003,49.2,384.78,50.328z"/>
			<path id="XMLID_47_" style="fill:#FFFFFF;" d="M310.934,190.88c0,0,2.344,8.672,12.188,9.61
				c9.844,0.938,8.907,14.532-3.281,12.657c-12.188-1.875-15.47,1.406-19.454,1.875c-3.985,0.469-10.079-0.703-10.547-7.969
				c-0.469-7.266,5.625-6.797,9.844-7.031c4.219-0.234,0.234-7.969,2.813-10.313C305.074,187.364,309.686,188.109,310.934,190.88z"
				/>
			<path id="XMLID_51_" style="fill:#FFFFFF;" d="M282.359,225.662c3.644-2.695,8.775,0.273,8.784,4.805
				c0,0.189-0.003,0.384-0.01,0.584c-0.243,6.856-6.075,4.219-8.991,4.571c-2.916,0.351-4.374-2.866-4.374-5.652
				c0-2.786,2.43-2.232,4.131-3.916C282.041,225.913,282.195,225.783,282.359,225.662z"/>
		</g>
		<g id="XMLID_1_">
			
				<text id="XMLID_45_" transform="matrix(1 0 0 1 311.0798 99.7918)" style="fill:#E94E1B; font-family:'Baloo'; font-size:71.7722px;">404</text>
			
				<text id="XMLID_46_" transform="matrix(1 0 0 1 311.0798 134.7869)" style="fill:#E94E1B; font-family:'Baloo'; font-size:42.7599px;">ERROR</text>
			
				<text id="XMLID_146_" transform="matrix(1 0 0 1 313.6071 153.6951)" style="fill:#E94E1B; font-family:'Baloo'; font-size:16.2216px;">PAGE NOT FOUND</text>
		</g>
	</g>
</g>
<g id="DESIGNED_BY_FREEPIK">
	<g id="XMLID_7126_">
		<g id="XMLID_7163_">
			<path id="XMLID_7188_" style="fill:#FFFFFF;" d="M186.001,486.493v-0.147c-0.2,0.229-0.397,0.415-0.592,0.558
				c-0.194,0.144-0.405,0.253-0.633,0.327c-0.227,0.076-0.475,0.112-0.744,0.112c-0.357,0-0.686-0.075-0.99-0.226
				c-0.303-0.151-0.566-0.367-0.787-0.646c-0.222-0.28-0.39-0.608-0.504-0.987c-0.114-0.378-0.172-0.787-0.172-1.226
				c0-0.93,0.227-1.656,0.682-2.176c0.454-0.519,1.052-0.779,1.793-0.779c0.429,0,0.79,0.074,1.085,0.22
				c0.294,0.147,0.581,0.374,0.861,0.679v-2.197c0-0.305,0.061-0.536,0.183-0.692c0.121-0.156,0.295-0.234,0.52-0.234
				c0.225,0,0.398,0.072,0.52,0.215c0.122,0.144,0.183,0.355,0.183,0.635v6.563c0,0.284-0.065,0.496-0.196,0.638
				c-0.131,0.141-0.299,0.213-0.507,0.213c-0.203,0-0.372-0.073-0.505-0.22C186.068,486.975,186.001,486.766,186.001,486.493z
				 M183.074,484.308c0,0.404,0.063,0.747,0.188,1.03c0.126,0.284,0.297,0.497,0.515,0.64c0.218,0.144,0.456,0.216,0.714,0.216
				c0.262,0,0.501-0.068,0.717-0.205c0.216-0.136,0.389-0.345,0.518-0.626c0.129-0.282,0.193-0.634,0.193-1.055
				c0-0.396-0.064-0.737-0.193-1.023c-0.129-0.285-0.303-0.503-0.523-0.654c-0.22-0.15-0.461-0.225-0.722-0.225
				c-0.272,0-0.516,0.077-0.73,0.232c-0.214,0.154-0.381,0.375-0.499,0.665C183.133,483.591,183.074,483.926,183.074,484.308z"/>
			<path id="XMLID_7185_" style="fill:#FFFFFF;" d="M192.564,484.684h-2.911c0.004,0.337,0.072,0.636,0.205,0.893
				c0.132,0.258,0.309,0.453,0.529,0.583c0.22,0.131,0.463,0.196,0.728,0.196c0.178,0,0.34-0.02,0.488-0.062
				c0.147-0.043,0.29-0.107,0.428-0.197c0.138-0.089,0.265-0.184,0.381-0.286c0.116-0.102,0.266-0.241,0.452-0.415
				c0.076-0.065,0.186-0.098,0.328-0.098c0.152,0,0.276,0.043,0.37,0.126c0.094,0.084,0.142,0.201,0.142,0.354
				c0,0.135-0.053,0.291-0.158,0.471c-0.106,0.18-0.265,0.353-0.477,0.518c-0.213,0.165-0.479,0.302-0.802,0.411
				c-0.321,0.109-0.691,0.164-1.109,0.164c-0.955,0-1.699-0.273-2.229-0.818c-0.531-0.545-0.796-1.285-0.796-2.218
				c0-0.44,0.065-0.848,0.196-1.224c0.131-0.377,0.322-0.699,0.572-0.968c0.251-0.269,0.56-0.475,0.927-0.619
				c0.367-0.143,0.774-0.215,1.221-0.215c0.581,0,1.08,0.122,1.496,0.368c0.417,0.245,0.729,0.562,0.935,0.951
				c0.207,0.389,0.311,0.786,0.311,1.188c0,0.375-0.107,0.617-0.321,0.729C193.255,484.628,192.953,484.684,192.564,484.684z
				 M189.653,483.839h2.699c-0.036-0.509-0.174-0.89-0.412-1.142c-0.238-0.253-0.551-0.379-0.94-0.379
				c-0.371,0-0.675,0.128-0.913,0.384C189.848,482.958,189.704,483.337,189.653,483.839z"/>
			<path id="XMLID_7183_" style="fill:#FFFFFF;" d="M199.345,485.397c0,0.411-0.1,0.763-0.3,1.055
				c-0.2,0.292-0.495,0.514-0.886,0.665c-0.39,0.151-0.866,0.226-1.425,0.226c-0.534,0-0.992-0.082-1.374-0.246
				c-0.381-0.163-0.663-0.368-0.845-0.613c-0.182-0.246-0.273-0.492-0.273-0.739c0-0.164,0.058-0.303,0.175-0.419
				c0.116-0.116,0.263-0.174,0.442-0.174c0.156,0,0.275,0.038,0.359,0.114c0.084,0.076,0.164,0.184,0.24,0.321
				c0.153,0.266,0.336,0.463,0.548,0.595c0.213,0.131,0.502,0.196,0.87,0.196c0.298,0,0.542-0.067,0.733-0.199
				c0.19-0.133,0.286-0.285,0.286-0.456c0-0.262-0.099-0.452-0.297-0.572c-0.198-0.12-0.524-0.235-0.979-0.344
				c-0.512-0.127-0.929-0.261-1.251-0.401c-0.322-0.139-0.579-0.324-0.771-0.553c-0.193-0.229-0.289-0.511-0.289-0.845
				c0-0.298,0.089-0.579,0.267-0.845c0.178-0.265,0.441-0.476,0.788-0.634c0.346-0.159,0.765-0.238,1.256-0.238
				c0.385,0,0.732,0.04,1.038,0.121c0.308,0.079,0.564,0.187,0.769,0.322c0.205,0.134,0.361,0.283,0.469,0.446
				c0.107,0.164,0.161,0.323,0.161,0.48c0,0.17-0.057,0.31-0.171,0.42c-0.114,0.108-0.277,0.164-0.488,0.164
				c-0.153,0-0.282-0.044-0.39-0.132c-0.107-0.087-0.23-0.217-0.368-0.392c-0.113-0.145-0.245-0.262-0.398-0.349
				c-0.153-0.087-0.36-0.13-0.622-0.13c-0.269,0-0.492,0.057-0.67,0.172c-0.178,0.114-0.267,0.256-0.267,0.427
				c0,0.157,0.065,0.285,0.196,0.385c0.131,0.1,0.307,0.183,0.529,0.248c0.222,0.065,0.526,0.145,0.916,0.239
				c0.461,0.113,0.838,0.248,1.131,0.404c0.292,0.156,0.514,0.341,0.666,0.554C199.27,484.883,199.345,485.125,199.345,485.397z"/>
			<path id="XMLID_7180_" style="fill:#FFFFFF;" d="M200.865,480.601c-0.207,0-0.384-0.064-0.531-0.191
				c-0.147-0.127-0.221-0.307-0.221-0.54c0-0.211,0.075-0.384,0.226-0.521c0.151-0.137,0.326-0.204,0.526-0.204
				c0.193,0,0.363,0.062,0.512,0.186c0.149,0.124,0.224,0.303,0.224,0.54c0,0.229-0.073,0.408-0.219,0.537
				C201.237,480.536,201.065,480.601,200.865,480.601z M201.601,482.138v4.301c0,0.298-0.071,0.524-0.213,0.677
				c-0.142,0.152-0.321,0.229-0.54,0.229c-0.218,0-0.395-0.078-0.532-0.234c-0.137-0.156-0.204-0.38-0.204-0.671v-4.258
				c0-0.294,0.068-0.516,0.204-0.665c0.136-0.149,0.313-0.224,0.532-0.224c0.218,0,0.398,0.075,0.54,0.224
				C201.53,481.665,201.601,481.873,201.601,482.138z"/>
			<path id="XMLID_7177_" style="fill:#FFFFFF;" d="M208.12,482.383v4.323c0,0.494-0.053,0.92-0.159,1.276
				c-0.105,0.355-0.274,0.65-0.507,0.883c-0.233,0.232-0.537,0.405-0.913,0.517c-0.376,0.113-0.844,0.169-1.404,0.169
				c-0.512,0-0.97-0.072-1.374-0.215c-0.403-0.144-0.714-0.329-0.932-0.556c-0.218-0.227-0.327-0.461-0.327-0.701
				c0-0.182,0.062-0.33,0.186-0.444c0.123-0.115,0.273-0.172,0.447-0.172c0.218,0,0.409,0.096,0.573,0.289
				c0.08,0.098,0.162,0.198,0.248,0.298c0.085,0.1,0.18,0.186,0.284,0.257c0.104,0.07,0.228,0.123,0.373,0.158
				c0.146,0.034,0.313,0.051,0.502,0.051c0.385,0,0.684-0.053,0.897-0.161c0.213-0.107,0.362-0.257,0.447-0.45
				c0.085-0.192,0.135-0.398,0.15-0.618c0.015-0.22,0.025-0.573,0.033-1.061c-0.229,0.321-0.493,0.564-0.793,0.731
				c-0.3,0.167-0.657,0.251-1.071,0.251c-0.498,0-0.933-0.127-1.306-0.382c-0.372-0.254-0.659-0.61-0.858-1.068
				c-0.2-0.458-0.3-0.987-0.3-1.586c0-0.447,0.06-0.851,0.182-1.21c0.122-0.36,0.296-0.664,0.521-0.911
				c0.225-0.247,0.485-0.433,0.779-0.559c0.294-0.125,0.618-0.188,0.971-0.188c0.421,0,0.787,0.081,1.096,0.242
				c0.309,0.163,0.596,0.416,0.861,0.761v-0.202c0-0.258,0.063-0.457,0.191-0.6c0.128-0.141,0.291-0.212,0.491-0.212
				c0.287,0,0.478,0.094,0.572,0.281C208.073,481.761,208.12,482.031,208.12,482.383z M203.808,484.27
				c0,0.603,0.131,1.059,0.395,1.368c0.263,0.309,0.604,0.464,1.022,0.464c0.247,0,0.48-0.067,0.7-0.199
				c0.22-0.133,0.399-0.333,0.537-0.6c0.138-0.267,0.207-0.591,0.207-0.973c0-0.607-0.133-1.079-0.401-1.417
				c-0.267-0.338-0.619-0.507-1.055-0.507c-0.425,0-0.766,0.162-1.022,0.485C203.936,483.214,203.808,483.674,203.808,484.27z"/>
			<path id="XMLID_7175_" style="fill:#FFFFFF;" d="M210.485,482.116v0.18c0.261-0.345,0.548-0.599,0.858-0.761
				c0.311-0.161,0.668-0.243,1.071-0.243c0.393,0,0.743,0.086,1.052,0.257c0.309,0.171,0.54,0.413,0.692,0.724
				c0.099,0.182,0.162,0.379,0.191,0.589c0.029,0.211,0.044,0.48,0.044,0.807v2.769c0,0.298-0.068,0.524-0.205,0.677
				c-0.136,0.152-0.313,0.229-0.531,0.229c-0.222,0-0.402-0.078-0.54-0.234c-0.138-0.156-0.207-0.38-0.207-0.671v-2.48
				c0-0.49-0.069-0.866-0.205-1.126c-0.137-0.259-0.408-0.39-0.815-0.39c-0.265,0-0.507,0.079-0.725,0.237
				c-0.218,0.159-0.378,0.376-0.48,0.652c-0.073,0.222-0.109,0.636-0.109,1.243v1.864c0,0.302-0.07,0.529-0.21,0.679
				c-0.14,0.151-0.321,0.226-0.542,0.226c-0.215,0-0.391-0.078-0.529-0.234c-0.138-0.156-0.207-0.38-0.207-0.671v-4.301
				c0-0.284,0.062-0.496,0.185-0.636c0.124-0.14,0.293-0.21,0.507-0.21c0.131,0,0.249,0.031,0.355,0.093
				c0.105,0.062,0.19,0.155,0.253,0.277C210.454,481.787,210.485,481.938,210.485,482.116z"/>
			<path id="XMLID_7172_" style="fill:#FFFFFF;" d="M219.539,484.684h-2.911c0.004,0.337,0.072,0.636,0.205,0.893
				c0.133,0.258,0.309,0.453,0.529,0.583c0.219,0.131,0.462,0.196,0.727,0.196c0.178,0,0.341-0.02,0.488-0.062
				c0.146-0.043,0.289-0.107,0.428-0.197c0.138-0.089,0.265-0.184,0.382-0.286c0.116-0.102,0.266-0.241,0.452-0.415
				c0.076-0.065,0.185-0.098,0.327-0.098c0.153,0,0.276,0.043,0.371,0.126c0.094,0.084,0.142,0.201,0.142,0.354
				c0,0.135-0.052,0.291-0.158,0.471c-0.106,0.18-0.265,0.353-0.477,0.518c-0.213,0.165-0.479,0.302-0.801,0.411
				c-0.322,0.109-0.692,0.164-1.109,0.164c-0.956,0-1.699-0.273-2.23-0.818c-0.53-0.545-0.796-1.285-0.796-2.218
				c0-0.44,0.065-0.848,0.196-1.224c0.131-0.377,0.322-0.699,0.573-0.968c0.251-0.269,0.56-0.475,0.926-0.619
				c0.367-0.143,0.774-0.215,1.221-0.215c0.581,0,1.079,0.122,1.496,0.368c0.417,0.245,0.728,0.562,0.936,0.951
				c0.207,0.389,0.311,0.786,0.311,1.188c0,0.375-0.107,0.617-0.322,0.729C220.23,484.628,219.928,484.684,219.539,484.684z
				 M216.628,483.839h2.698c-0.036-0.509-0.174-0.89-0.411-1.142c-0.238-0.253-0.551-0.379-0.94-0.379
				c-0.371,0-0.676,0.128-0.914,0.384C216.823,482.958,216.679,483.337,216.628,483.839z"/>
			<path id="XMLID_7169_" style="fill:#FFFFFF;" d="M225.605,486.493v-0.147c-0.2,0.229-0.397,0.415-0.591,0.558
				c-0.195,0.144-0.405,0.253-0.632,0.327c-0.227,0.076-0.475,0.112-0.744,0.112c-0.357,0-0.686-0.075-0.99-0.226
				c-0.303-0.151-0.566-0.367-0.788-0.646c-0.222-0.28-0.39-0.608-0.504-0.987c-0.115-0.378-0.172-0.787-0.172-1.226
				c0-0.93,0.227-1.656,0.681-2.176c0.454-0.519,1.052-0.779,1.794-0.779c0.429,0,0.791,0.074,1.085,0.22
				c0.294,0.147,0.582,0.374,0.861,0.679v-2.197c0-0.305,0.061-0.536,0.183-0.692c0.121-0.156,0.295-0.234,0.521-0.234
				c0.225,0,0.398,0.072,0.52,0.215c0.122,0.144,0.183,0.355,0.183,0.635v6.563c0,0.284-0.065,0.496-0.196,0.638
				c-0.131,0.141-0.3,0.213-0.507,0.213c-0.204,0-0.372-0.073-0.504-0.22C225.672,486.975,225.605,486.766,225.605,486.493z
				 M222.678,484.308c0,0.404,0.062,0.747,0.188,1.03c0.125,0.284,0.297,0.497,0.516,0.64c0.218,0.144,0.456,0.216,0.713,0.216
				c0.262,0,0.501-0.068,0.717-0.205c0.216-0.136,0.389-0.345,0.518-0.626c0.129-0.282,0.194-0.634,0.194-1.055
				c0-0.396-0.064-0.737-0.194-1.023c-0.129-0.285-0.303-0.503-0.523-0.654c-0.22-0.15-0.461-0.225-0.722-0.225
				c-0.272,0-0.516,0.077-0.73,0.232c-0.214,0.154-0.38,0.375-0.499,0.665C222.737,483.591,222.678,483.926,222.678,484.308z"/>
			<path id="XMLID_7166_" style="fill:#FFFFFF;" d="M231.688,479.93v2.273c0.28-0.29,0.565-0.513,0.856-0.668
				c0.291-0.154,0.651-0.231,1.079-0.231c0.494,0,0.927,0.117,1.3,0.351c0.372,0.236,0.661,0.575,0.867,1.02
				c0.205,0.444,0.308,0.973,0.308,1.584c0,0.451-0.057,0.863-0.172,1.24c-0.115,0.376-0.281,0.702-0.499,0.978
				c-0.218,0.276-0.482,0.49-0.793,0.641c-0.311,0.151-0.654,0.226-1.028,0.226c-0.229,0-0.445-0.027-0.646-0.082
				c-0.202-0.054-0.374-0.125-0.515-0.215c-0.141-0.089-0.262-0.18-0.362-0.275c-0.1-0.094-0.232-0.237-0.395-0.425v0.147
				c0,0.28-0.067,0.491-0.202,0.636c-0.134,0.144-0.305,0.215-0.512,0.215c-0.211,0-0.379-0.071-0.504-0.215
				c-0.126-0.144-0.188-0.356-0.188-0.636v-6.498c0-0.302,0.061-0.53,0.182-0.684c0.122-0.154,0.292-0.231,0.51-0.231
				c0.229,0,0.405,0.073,0.529,0.22C231.626,479.448,231.688,479.657,231.688,479.93z M231.759,484.351
				c0,0.592,0.135,1.047,0.406,1.365c0.271,0.318,0.626,0.478,1.066,0.478c0.374,0,0.697-0.163,0.967-0.488
				c0.271-0.326,0.406-0.791,0.406-1.398c0-0.392-0.056-0.731-0.169-1.014c-0.113-0.284-0.272-0.503-0.479-0.657
				c-0.207-0.154-0.449-0.232-0.725-0.232c-0.283,0-0.536,0.077-0.758,0.232c-0.222,0.154-0.396,0.378-0.523,0.67
				C231.823,483.599,231.759,483.948,231.759,484.351z"/>
			<path id="XMLID_7164_" style="fill:#FFFFFF;" d="M238.028,487.529l0.136-0.333l-1.832-4.612
				c-0.112-0.265-0.169-0.458-0.169-0.578c0-0.127,0.033-0.245,0.098-0.354c0.066-0.109,0.155-0.197,0.27-0.262
				c0.115-0.066,0.234-0.099,0.357-0.099c0.214,0,0.376,0.068,0.485,0.205c0.109,0.136,0.205,0.331,0.289,0.586l1.259,3.663
				l1.194-3.407c0.094-0.275,0.18-0.492,0.256-0.648c0.076-0.156,0.157-0.262,0.242-0.316c0.085-0.055,0.206-0.082,0.363-0.082
				c0.113,0,0.221,0.03,0.325,0.09c0.103,0.06,0.183,0.141,0.24,0.243c0.056,0.101,0.085,0.208,0.085,0.321
				c-0.015,0.069-0.038,0.167-0.071,0.295c-0.033,0.127-0.072,0.257-0.12,0.387l-1.941,5.081c-0.168,0.447-0.331,0.797-0.491,1.052
				c-0.16,0.254-0.371,0.451-0.635,0.586c-0.264,0.137-0.619,0.205-1.066,0.205c-0.436,0-0.763-0.047-0.981-0.141
				c-0.219-0.095-0.327-0.268-0.327-0.518c0-0.17,0.051-0.303,0.156-0.395c0.103-0.092,0.257-0.14,0.46-0.14
				c0.08,0,0.159,0.011,0.235,0.034c0.094,0.021,0.176,0.033,0.245,0.033c0.171,0,0.305-0.025,0.404-0.077
				c0.098-0.051,0.186-0.138,0.264-0.265C237.836,487.957,237.926,487.772,238.028,487.529z"/>
		</g>
		<g id="XMLID_7141_">
			<path id="XMLID_7162_" style="fill:#FFFFFF;" d="M259.586,481.422h0.355v-0.447c0-0.467,0.057-0.836,0.176-1.112
				c0.117-0.275,0.319-0.474,0.601-0.6c0.281-0.124,0.668-0.187,1.157-0.187c0.872,0,1.304,0.211,1.304,0.64
				c0,0.137-0.045,0.255-0.138,0.353c-0.089,0.097-0.197,0.147-0.32,0.147c-0.057,0-0.16-0.011-0.303-0.034
				c-0.136-0.019-0.259-0.032-0.358-0.032c-0.268,0-0.44,0.081-0.52,0.238c-0.073,0.158-0.112,0.384-0.112,0.68v0.354h0.363
				c0.569,0,0.85,0.17,0.85,0.514c0,0.24-0.073,0.396-0.225,0.462c-0.15,0.066-0.358,0.098-0.625,0.098h-0.363v3.944
				c0,0.293-0.069,0.517-0.212,0.67c-0.138,0.156-0.318,0.233-0.541,0.233c-0.211,0-0.385-0.077-0.527-0.233
				c-0.14-0.154-0.209-0.377-0.209-0.67v-3.944h-0.41c-0.223,0-0.392-0.048-0.513-0.15c-0.12-0.098-0.181-0.229-0.181-0.389
				C258.838,481.598,259.088,481.422,259.586,481.422"/>
			<path id="XMLID_7161_" style="fill:#FFFFFF;" d="M264.459,485.195v1.244c0,0.301-0.076,0.528-0.215,0.677
				c-0.142,0.152-0.321,0.227-0.538,0.227c-0.219,0-0.395-0.075-0.532-0.23c-0.136-0.151-0.207-0.377-0.207-0.674v-4.145
				c0-0.669,0.241-1.004,0.723-1.004c0.249,0,0.427,0.077,0.536,0.234c0.109,0.157,0.169,0.387,0.182,0.693
				c0.177-0.307,0.358-0.536,0.544-0.693c0.191-0.157,0.438-0.234,0.752-0.234c0.315,0,0.615,0.077,0.91,0.234
				c0.296,0.157,0.443,0.365,0.443,0.623c0,0.18-0.063,0.333-0.187,0.448c-0.126,0.12-0.261,0.179-0.405,0.179
				c-0.057,0-0.19-0.036-0.397-0.103c-0.21-0.065-0.395-0.099-0.553-0.099c-0.218,0-0.397,0.059-0.535,0.171
				c-0.139,0.118-0.247,0.285-0.324,0.509c-0.074,0.227-0.126,0.497-0.156,0.806C264.472,484.369,264.459,484.748,264.459,485.195"
				/>
			<path id="XMLID_7158_" style="fill:#FFFFFF;" d="M271.301,484.683h-2.912c0.005,0.337,0.071,0.637,0.203,0.895
				c0.135,0.256,0.31,0.451,0.531,0.584c0.221,0.131,0.461,0.195,0.728,0.195c0.178,0,0.34-0.019,0.488-0.064
				c0.146-0.04,0.29-0.106,0.428-0.196c0.139-0.087,0.264-0.183,0.381-0.287c0.116-0.1,0.268-0.239,0.453-0.413
				c0.077-0.065,0.186-0.1,0.326-0.1c0.154,0,0.276,0.043,0.373,0.127c0.095,0.085,0.14,0.201,0.14,0.354
				c0,0.135-0.051,0.292-0.154,0.47c-0.108,0.182-0.266,0.354-0.48,0.52c-0.215,0.164-0.482,0.303-0.802,0.41
				c-0.321,0.109-0.692,0.164-1.109,0.164c-0.959,0-1.701-0.271-2.231-0.816c-0.53-0.547-0.799-1.287-0.799-2.22
				c0-0.44,0.067-0.849,0.199-1.225c0.129-0.378,0.32-0.698,0.573-0.969c0.25-0.27,0.557-0.475,0.925-0.619
				c0.366-0.143,0.773-0.215,1.221-0.215c0.58,0,1.079,0.123,1.496,0.371c0.415,0.243,0.731,0.56,0.935,0.949
				c0.208,0.391,0.311,0.785,0.311,1.19c0,0.372-0.108,0.614-0.322,0.726C271.991,484.627,271.69,484.683,271.301,484.683
				 M268.388,483.836h2.698c-0.036-0.508-0.171-0.889-0.41-1.14c-0.24-0.254-0.55-0.379-0.942-0.379
				c-0.37,0-0.675,0.126-0.914,0.384C268.584,482.957,268.438,483.335,268.388,483.836"/>
			<path id="XMLID_7155_" style="fill:#FFFFFF;" d="M277.492,484.683h-2.912c0.003,0.337,0.072,0.637,0.204,0.895
				c0.133,0.256,0.309,0.451,0.529,0.584c0.22,0.131,0.462,0.195,0.73,0.195c0.177,0,0.34-0.019,0.485-0.064
				c0.148-0.04,0.29-0.106,0.43-0.196c0.139-0.087,0.264-0.183,0.381-0.287c0.114-0.1,0.266-0.239,0.452-0.413
				c0.077-0.065,0.187-0.1,0.326-0.1c0.154,0,0.277,0.043,0.373,0.127c0.095,0.085,0.138,0.201,0.138,0.354
				c0,0.135-0.05,0.292-0.157,0.47c-0.102,0.182-0.261,0.354-0.476,0.52c-0.212,0.164-0.482,0.303-0.801,0.41
				c-0.32,0.109-0.693,0.164-1.11,0.164c-0.957,0-1.698-0.271-2.231-0.816c-0.53-0.547-0.797-1.287-0.797-2.22
				c0-0.44,0.067-0.849,0.199-1.225c0.13-0.378,0.321-0.698,0.572-0.969c0.25-0.27,0.558-0.475,0.927-0.619
				c0.366-0.143,0.775-0.215,1.222-0.215c0.579,0,1.078,0.123,1.5,0.371c0.413,0.243,0.726,0.56,0.93,0.949
				c0.206,0.391,0.313,0.785,0.313,1.19c0,0.372-0.11,0.614-0.322,0.726C278.181,484.627,277.88,484.683,277.492,484.683
				 M274.58,483.836h2.698c-0.036-0.508-0.174-0.889-0.41-1.14c-0.242-0.254-0.552-0.379-0.943-0.379
				c-0.37,0-0.675,0.126-0.914,0.384C274.774,482.957,274.628,483.335,274.58,483.836"/>
			<path id="XMLID_7152_" style="fill:#FFFFFF;" d="M280.752,482.127v0.178c0.279-0.345,0.571-0.598,0.875-0.76
				c0.298-0.163,0.642-0.245,1.023-0.245c0.456,0,0.881,0.119,1.267,0.354c0.385,0.238,0.688,0.583,0.912,1.037
				c0.224,0.456,0.336,0.993,0.336,1.615c0,0.457-0.064,0.879-0.193,1.263c-0.128,0.383-0.308,0.704-0.533,0.964
				c-0.226,0.258-0.491,0.46-0.798,0.6c-0.311,0.138-0.638,0.209-0.992,0.209c-0.424,0-0.783-0.085-1.07-0.257
				c-0.289-0.168-0.564-0.421-0.827-0.749v2.234c0,0.652-0.239,0.981-0.714,0.981c-0.281,0-0.464-0.084-0.558-0.252
				c-0.087-0.172-0.134-0.415-0.134-0.741v-6.424c0-0.284,0.061-0.493,0.184-0.636c0.123-0.137,0.294-0.209,0.508-0.209
				c0.212,0,0.382,0.072,0.514,0.215C280.687,481.65,280.752,481.855,280.752,482.127 M283.669,484.29
				c0-0.393-0.061-0.731-0.18-1.012c-0.12-0.283-0.286-0.498-0.497-0.647c-0.211-0.151-0.449-0.228-0.707-0.228
				c-0.41,0-0.757,0.163-1.038,0.484c-0.283,0.325-0.424,0.801-0.424,1.431c0,0.589,0.14,1.052,0.422,1.381
				c0.28,0.329,0.623,0.493,1.04,0.493c0.246,0,0.477-0.072,0.687-0.214c0.213-0.145,0.382-0.36,0.507-0.647
				C283.606,485.043,283.669,484.696,283.669,484.29"/>
			<path id="XMLID_7149_" style="fill:#FFFFFF;" d="M286.663,480.597c-0.208,0-0.384-0.066-0.53-0.192
				c-0.149-0.128-0.223-0.306-0.223-0.538c0-0.211,0.075-0.384,0.228-0.522c0.15-0.135,0.325-0.204,0.525-0.204
				c0.195,0,0.365,0.061,0.513,0.183c0.149,0.125,0.224,0.306,0.224,0.543c0,0.229-0.073,0.408-0.217,0.537
				C287.037,480.532,286.865,480.597,286.663,480.597 M287.4,482.135v4.306c0,0.296-0.071,0.521-0.212,0.673
				c-0.143,0.155-0.322,0.23-0.54,0.23c-0.219,0-0.393-0.077-0.533-0.233c-0.134-0.159-0.204-0.382-0.204-0.669v-4.263
				c0-0.293,0.07-0.513,0.204-0.662c0.14-0.152,0.314-0.225,0.533-0.225c0.219,0,0.397,0.073,0.54,0.225
				C287.329,481.664,287.4,481.872,287.4,482.135"/>
			<path id="XMLID_7148_" style="fill:#FFFFFF;" d="M292.198,486.663l-1.311-2.161l-0.808,0.762v1.185
				c0,0.286-0.076,0.506-0.228,0.66c-0.147,0.156-0.325,0.233-0.52,0.233c-0.229,0-0.41-0.075-0.54-0.23
				c-0.13-0.151-0.197-0.377-0.197-0.674v-6.35c0-0.329,0.065-0.58,0.19-0.754c0.128-0.175,0.313-0.26,0.547-0.26
				c0.229,0,0.409,0.079,0.545,0.236c0.134,0.155,0.203,0.387,0.203,0.69v3.612l1.674-1.758c0.208-0.216,0.363-0.368,0.475-0.447
				c0.109-0.08,0.241-0.119,0.396-0.119c0.187,0,0.341,0.059,0.468,0.177c0.121,0.118,0.184,0.267,0.184,0.444
				c0,0.217-0.203,0.51-0.605,0.873l-0.79,0.725l1.526,2.401c0.111,0.18,0.194,0.312,0.243,0.405
				c0.048,0.091,0.074,0.183,0.074,0.265c0,0.237-0.066,0.422-0.195,0.56c-0.129,0.136-0.301,0.203-0.508,0.203
				c-0.182,0-0.324-0.047-0.421-0.147C292.5,487.097,292.364,486.918,292.198,486.663"/>
			<path id="XMLID_7147_" style="fill:#FFFFFF;" d="M295.432,487.343c-0.225,0-0.418-0.072-0.582-0.219
				c-0.163-0.143-0.246-0.348-0.246-0.611c0-0.221,0.079-0.413,0.235-0.571c0.158-0.16,0.349-0.24,0.578-0.24
				c0.228,0,0.422,0.08,0.587,0.237c0.16,0.158,0.242,0.351,0.242,0.575c0,0.26-0.082,0.464-0.242,0.608
				C295.84,487.27,295.65,487.343,295.432,487.343"/>
			<path id="XMLID_7146_" style="fill:#FFFFFF;" d="M302.835,485.5c0,0.184-0.055,0.383-0.167,0.594
				c-0.11,0.212-0.28,0.412-0.508,0.603c-0.227,0.191-0.512,0.346-0.858,0.461c-0.345,0.116-0.735,0.176-1.165,0.176
				c-0.922,0-1.641-0.27-2.157-0.804c-0.514-0.537-0.772-1.257-0.772-2.158c0-0.613,0.117-1.151,0.355-1.621
				c0.234-0.467,0.576-0.831,1.022-1.087c0.447-0.257,0.985-0.384,1.603-0.384c0.387,0,0.739,0.056,1.063,0.169
				c0.322,0.112,0.592,0.259,0.818,0.435c0.222,0.181,0.393,0.369,0.511,0.569c0.119,0.202,0.177,0.391,0.177,0.567
				c0,0.176-0.065,0.328-0.197,0.452c-0.135,0.123-0.296,0.186-0.481,0.186c-0.126,0-0.228-0.033-0.311-0.095
				c-0.082-0.064-0.175-0.166-0.275-0.311c-0.182-0.275-0.371-0.483-0.572-0.619c-0.197-0.139-0.448-0.208-0.754-0.208
				c-0.437,0-0.794,0.171-1.064,0.515c-0.268,0.342-0.404,0.815-0.404,1.408c0,0.28,0.036,0.539,0.105,0.773
				c0.067,0.234,0.167,0.434,0.299,0.599c0.132,0.165,0.289,0.29,0.474,0.375c0.186,0.088,0.391,0.129,0.61,0.129
				c0.299,0,0.555-0.069,0.767-0.207c0.216-0.138,0.403-0.349,0.566-0.633c0.091-0.167,0.188-0.297,0.292-0.392
				c0.105-0.094,0.235-0.143,0.388-0.143c0.182,0,0.333,0.071,0.451,0.208C302.774,485.197,302.835,485.345,302.835,485.5"/>
			<path id="XMLID_7143_" style="fill:#FFFFFF;" d="M309.258,484.318c0,0.442-0.07,0.852-0.204,1.228
				c-0.142,0.374-0.34,0.696-0.603,0.963c-0.261,0.269-0.575,0.475-0.936,0.62c-0.367,0.142-0.775,0.215-1.228,0.215
				c-0.451,0-0.857-0.073-1.217-0.22c-0.358-0.143-0.672-0.353-0.933-0.621c-0.265-0.274-0.464-0.594-0.604-0.962
				c-0.132-0.369-0.201-0.777-0.201-1.223c0-0.451,0.071-0.864,0.206-1.239c0.139-0.376,0.338-0.696,0.596-0.96
				c0.259-0.265,0.57-0.469,0.936-0.614c0.369-0.143,0.775-0.215,1.217-0.215c0.45,0,0.86,0.072,1.228,0.219
				c0.366,0.144,0.679,0.353,0.943,0.619c0.263,0.272,0.461,0.591,0.597,0.96C309.189,483.462,309.258,483.869,309.258,484.318
				 M307.764,484.318c0-0.607-0.135-1.079-0.401-1.417c-0.266-0.342-0.625-0.509-1.076-0.509c-0.292,0-0.548,0.076-0.771,0.226
				c-0.222,0.15-0.391,0.373-0.511,0.668c-0.12,0.295-0.181,0.639-0.181,1.032c0,0.39,0.059,0.728,0.178,1.018
				c0.119,0.293,0.288,0.515,0.508,0.669c0.221,0.153,0.479,0.232,0.776,0.232c0.45,0,0.81-0.17,1.076-0.512
				C307.629,485.386,307.764,484.915,307.764,484.318"/>
			<path id="XMLID_7142_" style="fill:#FFFFFF;" d="M314.935,484.427v1.978c0,0.314-0.069,0.546-0.212,0.704
				c-0.144,0.156-0.328,0.234-0.561,0.234c-0.225,0-0.41-0.078-0.546-0.234c-0.142-0.159-0.214-0.391-0.214-0.704v-2.371
				c0-0.375-0.012-0.667-0.036-0.875c-0.026-0.203-0.096-0.376-0.208-0.507c-0.113-0.135-0.292-0.202-0.534-0.202
				c-0.488,0-0.808,0.166-0.962,0.506c-0.154,0.331-0.233,0.811-0.233,1.439v2.01c0,0.309-0.07,0.543-0.207,0.702
				c-0.143,0.157-0.326,0.237-0.554,0.237c-0.227,0-0.411-0.08-0.555-0.237c-0.145-0.159-0.216-0.393-0.216-0.702v-4.258
				c0-0.281,0.064-0.494,0.192-0.638c0.132-0.147,0.302-0.219,0.511-0.219c0.204,0,0.374,0.071,0.512,0.204
				c0.136,0.137,0.203,0.325,0.203,0.565v0.141c0.26-0.307,0.536-0.535,0.829-0.678c0.297-0.149,0.621-0.221,0.983-0.221
				c0.374,0,0.695,0.075,0.963,0.224c0.27,0.15,0.49,0.376,0.666,0.675c0.252-0.303,0.522-0.53,0.809-0.678
				c0.287-0.147,0.604-0.221,0.954-0.221c0.405,0,0.758,0.082,1.053,0.241c0.293,0.16,0.512,0.39,0.659,0.686
				c0.127,0.271,0.189,0.694,0.189,1.272v2.906c0,0.314-0.07,0.546-0.211,0.704c-0.141,0.156-0.33,0.234-0.562,0.234
				c-0.227,0-0.41-0.08-0.554-0.237c-0.143-0.159-0.216-0.393-0.216-0.702v-2.503c0-0.321-0.014-0.576-0.04-0.768
				c-0.027-0.193-0.101-0.356-0.22-0.486c-0.122-0.131-0.304-0.197-0.547-0.197c-0.196,0-0.382,0.061-0.559,0.177
				c-0.176,0.114-0.314,0.273-0.414,0.466C314.992,483.345,314.935,483.79,314.935,484.427"/>
		</g>
		<g id="XMLID_7127_">
			<path id="XMLID_7140_" style="fill:#FFFFFF;" d="M245.658,483.957c-0.001-0.003-0.001-0.006-0.001-0.01
				C245.657,483.952,245.657,483.954,245.658,483.957z"/>
			<path id="XMLID_7139_" style="fill:#FFFFFF;" d="M245.733,484.433c0.001,0,0.001,0,0.002,0c-0.029-0.136-0.051-0.27-0.068-0.403
				C245.684,484.164,245.706,484.299,245.733,484.433z"/>
			<path id="XMLID_7138_" style="fill:#FFFFFF;" d="M246.226,485.814c-0.003-0.006-0.006-0.012-0.01-0.019
				C246.22,485.802,246.223,485.809,246.226,485.814z"/>
			<path id="XMLID_7137_" style="fill:#FFFFFF;" d="M246.179,485.722c-0.013-0.025-0.025-0.052-0.037-0.077
				C246.154,485.672,246.166,485.697,246.179,485.722z"/>
			<path id="XMLID_7136_" style="fill:#FFFFFF;" d="M245.872,484.965c0.073,0.23,0.161,0.452,0.262,0.665
				c-0.103-0.217-0.189-0.44-0.26-0.665H245.872z"/>
			<path id="XMLID_7135_" style="fill:#FFFFFF;" d="M251.419,478.254c0.288,0,0.5,0.023,0.743,0.064l0.069-0.438
				c0,0-0.672-0.207-1.556-0.134l-0.07-0.238c0.275-0.058,0.481-0.302,0.481-0.594c0-0.334-0.272-0.605-0.607-0.605
				c-0.335,0-0.606,0.271-0.606,0.605c0,0.291,0.206,0.536,0.48,0.594l0.077,0.266c-0.938,0.129-1.685,0.495-1.685,0.495
				l0.132,0.405c0.568-0.189,1.06-0.304,1.506-0.352C250.822,478.275,251.151,478.254,251.419,478.254z"/>
			<path id="XMLID_7134_" style="fill:#FFFFFF;" d="M246.215,480.469l0.003-0.004c0.022-0.029,0.043-0.055,0.065-0.082l-0.18-0.13
				l-0.28-0.204c-0.016,0.022-0.456,0.427-0.804,1.175c-0.015-0.023-0.032-0.046-0.051-0.068c-0.104-0.114-0.25-0.172-0.435-0.169
				c-0.002,0-0.005,0-0.008,0c-0.115,0-0.193-0.038-0.245-0.085c0.051-0.065,0.082-0.147,0.082-0.237
				c0-0.211-0.172-0.384-0.384-0.384c-0.212,0-0.384,0.173-0.384,0.384c0,0.212,0.172,0.384,0.384,0.384
				c0.033,0,0.065-0.005,0.096-0.012c0.094,0.105,0.244,0.196,0.464,0.192c0.113-0.001,0.196,0.028,0.251,0.089
				c0.064,0.07,0.085,0.17,0.092,0.246c-0.001,0.001-0.001,0.003-0.002,0.003c-0.25,0.683-0.178,1.532-0.178,1.532l0.607,0.024
				c0.012-0.309,0.057-0.851,0.213-1.28C245.821,481.011,246.199,480.491,246.215,480.469z"/>
			<path id="XMLID_7133_" style="fill:#FFFFFF;" d="M256.699,478.762c-0.211,0-0.384,0.172-0.384,0.384
				c0,0.033,0.005,0.064,0.014,0.095c-0.105,0.095-0.197,0.245-0.193,0.465c0.002,0.113-0.027,0.195-0.089,0.251
				c-0.049,0.043-0.11,0.066-0.17,0.081c-0.452-0.633-1.008-1.019-1.008-1.019l-0.436,0.467c0.329,0.299,0.665,0.674,0.992,1.142
				c0.226,0.323,0.459,0.74,0.652,1.156l0.588-0.279c0,0-0.268-0.663-0.646-1.258c0.066-0.023,0.132-0.059,0.19-0.11
				c0.115-0.104,0.171-0.25,0.168-0.435c-0.001-0.119,0.038-0.2,0.085-0.253c0.065,0.05,0.147,0.082,0.236,0.082
				c0.213,0,0.385-0.172,0.385-0.384C257.083,478.933,256.912,478.762,256.699,478.762z"/>
			<path id="XMLID_7132_" style="fill:#FFFFFF;" d="M255.174,484.043c-0.809,0.394-2.14,0.915-3.892,1.159
				c-0.688,0.095-1.354,0.13-1.968,0.13c-0.798,0-1.503-0.059-2.045-0.128c-0.618-0.078-1.1-0.173-1.396-0.24
				c0.071,0.225,0.157,0.448,0.26,0.665c0.002,0.006,0.004,0.012,0.007,0.016c0.012,0.025,0.025,0.052,0.037,0.077
				c0.012,0.025,0.025,0.05,0.037,0.073c0.004,0.007,0.007,0.013,0.01,0.019c0.174,0.327,0.383,0.628,0.62,0.889
				c0.826,0.904,1.668,1.047,1.676,1.048l0.013,0.002l0.012,0.004c0.008,0.003,0.754,0.244,1.889,0.244
				c1.117,0,2.212-0.225,3.257-0.67c0.773-0.396,1.505-0.996,1.868-1.532c0.28-0.415,0.483-0.857,0.603-1.317
				c0.064-0.244,0.114-0.636,0.085-1.048C256.021,483.588,255.661,483.806,255.174,484.043z"/>
			<path id="XMLID_7128_" style="fill:#FFFFFF;" d="M246.474,480.66c-0.024,0.034-0.374,0.531-0.652,1.293
				c-0.208,0.571-0.198,1.402-0.198,1.412v0.002c0,0.195,0.011,0.389,0.033,0.58c0,0.004,0,0.007,0.001,0.01
				c0.002,0.025,0.006,0.048,0.009,0.073c0.017,0.133,0.04,0.267,0.068,0.403c0.402,0.102,2.8,0.661,5.48,0.288
				c1.68-0.234,2.955-0.73,3.73-1.106c0.643-0.312,1.057-0.595,1.217-0.711c-0.159-0.59-0.598-1.516-1-2.093
				c-1.151-1.645-2.392-2.066-3.029-2.171c-0.243-0.04-0.438-0.063-0.714-0.063c-0.257,0-0.575,0.021-1.001,0.066
				c-0.426,0.044-0.902,0.156-1.453,0.342c-0.773,0.259-1.473,0.665-2.024,1.175l-0.019,0.017
				C246.841,480.253,246.67,480.411,246.474,480.66z M253.516,480.278c0.551,0,1,0.448,1,1s-0.449,1.001-1,1.001
				c-0.552,0-1-0.449-1-1.001S252.964,480.278,253.516,480.278z M248.786,480.238c0.893,0,1.617,0.724,1.617,1.617
				c0,0.893-0.723,1.615-1.617,1.615c-0.892,0-1.616-0.723-1.616-1.615C247.17,480.962,247.894,480.238,248.786,480.238z"/>
		</g>
	</g>
</g>
</svg>
